<svg width="48" height="34" viewBox="0 0 48 34" fill="none" xmlns="http://www.w3.org/2000/svg">
<g clip-path="url(#clip0_11_151)">
<path d="M10.1232 27.4945H11.5933V6.44827H10.1232V27.4945Z" fill="#1A1918"/>
<path d="M12.0571 27.4945H12.5129V6.44827H12.0571V27.4945Z" fill="#1A1918"/>
<path d="M12.9097 27.4945H13.7252V6.44827H12.9097V27.4945Z" fill="#1A1918"/>
<path d="M14.5123 27.4945H14.9674V6.44827H14.5123V27.4945Z" fill="#1A1918"/>
<path d="M15.1661 27.4945H15.5171V6.44827H15.1661V27.4945Z" fill="#1A1918"/>
<path d="M9.00482 27.4945H9.46069V6.44827H9.00482V27.4945Z" fill="#1A1918"/>
<path d="M8 27.4945H8.81552V6.44827H8V27.4945Z" fill="#1A1918"/>
<path d="M17.9526 27.4945H19.4228V6.44827H17.9526V27.4945Z" fill="#1A1918"/>
<path d="M19.8865 27.4945H20.3416V6.44827H19.8865V27.4945Z" fill="#1A1918"/>
<path d="M20.7391 27.4945H21.5546V6.44827H20.7391V27.4945Z" fill="#1A1918"/>
<path d="M22.3409 27.4945H22.7968V6.44827H22.3409V27.4945Z" fill="#1A1918"/>
<path d="M22.9948 27.4945H23.3465V6.44827H22.9948V27.4945Z" fill="#1A1918"/>
<path d="M16.8342 27.4945H17.2901V6.44827H16.8342V27.4945Z" fill="#1A1918"/>
<path d="M15.8294 27.4945H16.6449V6.44827H15.8294V27.4945Z" fill="#1A1918"/>
<path d="M23.9239 27.4945H24.7394V6.44827H23.9239V27.4945Z" fill="#1A1918"/>
<path d="M25.5257 27.4945H25.9816V6.44827H25.5257V27.4945Z" fill="#1A1918"/>
<path d="M26.1804 27.4945H26.5313V6.44827H26.1804V27.4945Z" fill="#1A1918"/>
<path d="M27.8484 27.4945H28.3043V6.44827H27.8484V27.4945Z" fill="#1A1918"/>
<path d="M26.8436 27.4945H27.6591V6.44827H26.8436V27.4945Z" fill="#1A1918"/>
<path d="M28.91 27.4945H29.3659V6.44827H28.91V27.4945Z" fill="#1A1918"/>
<path d="M29.5638 27.4945H29.9148V6.44827H29.5638V27.4945Z" fill="#1A1918"/>
<path d="M31.232 27.4945H31.6879V6.44827H31.232V27.4945Z" fill="#1A1918"/>
<path d="M30.2272 27.4945H31.0427V6.44827H30.2272V27.4945Z" fill="#1A1918"/>
<path d="M32.0853 27.4945H33.5555V6.44827H32.0853V27.4945Z" fill="#1A1918"/>
<path d="M34.0192 27.4945H34.4751V6.44827H34.0192V27.4945Z" fill="#1A1918"/>
<path d="M34.8718 27.4945H35.6873V6.44827H34.8718V27.4945Z" fill="#1A1918"/>
<path d="M36.4737 27.4945H36.9296V6.44827H36.4737V27.4945Z" fill="#1A1918"/>
<path d="M37.1275 27.4945H37.4793V6.44827H37.1275V27.4945Z" fill="#1A1918"/>
<path d="M38.0566 27.4945H39.5267V6.44827H38.0566V27.4945Z" fill="#1A1918"/>
<path d="M9.66339 27.5285H37.8484V19.0751H9.66339V27.5285Z" fill="#D9D9D9"/>
<path d="M10.1948 27.2041V19.5557H12.8146C13.2537 19.5375 13.6915 19.6164 14.0983 19.7871C14.4169 19.9388 14.6812 20.1891 14.854 20.5028C15.0332 20.8075 15.1282 21.1564 15.1288 21.5122C15.1324 22.1991 14.7548 22.8282 14.1553 23.1342C14.5467 23.2468 14.8896 23.4915 15.1288 23.8286C15.3601 24.1671 15.4797 24.5727 15.4701 24.9859C15.4727 25.331 15.4017 25.6725 15.262 25.9864C15.1476 26.2614 14.9723 26.5052 14.75 26.6986C14.5229 26.8762 14.2631 27.0046 13.9861 27.076C13.6173 27.1689 13.2381 27.2119 12.8583 27.2041L10.1948 27.2041ZM11.121 22.771H12.6308C12.9271 22.7838 13.2236 22.7538 13.5117 22.6819C13.7263 22.6205 13.9139 22.4854 14.0432 22.2992C14.1681 22.1001 14.2305 21.8664 14.222 21.6297C14.2273 21.3945 14.1693 21.1624 14.0545 20.9587C13.9499 20.7694 13.7801 20.6271 13.5784 20.5597C13.2314 20.4723 12.874 20.4363 12.5171 20.4528H11.121V22.771ZM11.121 26.3067H12.86C13.0708 26.3127 13.2818 26.3002 13.4906 26.2694C13.6801 26.2373 13.8614 26.1665 14.0237 26.061C14.1754 25.9525 14.297 25.8053 14.3763 25.6339C14.4717 25.4328 14.5191 25.2113 14.5144 24.9877C14.5209 24.724 14.4507 24.4642 14.3128 24.2415C14.1826 24.0323 13.9864 23.8752 13.757 23.7963C13.4257 23.6979 13.0811 23.6546 12.7365 23.6682H11.121V26.3066V26.3067Z" fill="#1A1918"/>
<path d="M16.3087 24.4322C16.2412 23.5941 16.5256 22.7663 17.0904 22.1569C17.523 21.748 18.0936 21.5277 18.6816 21.5427C19.3294 21.5223 19.953 21.7958 20.3862 22.2904C20.854 22.8671 21.0904 23.6047 21.0477 24.3537C21.0732 24.9287 20.9733 25.5023 20.7553 26.0326C20.5697 26.4297 20.2726 26.7608 19.9021 26.9833C19.5329 27.2081 19.1109 27.3251 18.6816 27.3216C18.0298 27.3466 17.4007 27.0741 16.9637 26.5775C16.4911 25.9718 16.2574 25.2062 16.3087 24.4321V24.4322ZM17.1863 24.4339C17.1449 24.9982 17.2948 25.5598 17.6105 26.0237C17.8691 26.3582 18.2625 26.553 18.6786 26.5527C19.0947 26.5523 19.4879 26.3568 19.7459 26.0219C20.0631 25.548 20.2128 24.977 20.1701 24.4037C20.2083 23.851 20.0571 23.3018 19.7426 22.8513C19.4846 22.5178 19.0925 22.3231 18.6775 22.3223C18.2624 22.3216 17.8697 22.5149 17.6105 22.8474C17.295 23.3102 17.1451 23.8707 17.1863 24.4339H17.1863Z" fill="#1A1918"/>
<path d="M22.0341 27.2041H22.8922V19.5557H22.0341V27.2041Z" fill="#1A1918"/>
<path d="M27.6721 25.4095L28.5594 25.5377C28.4511 26.0522 28.1789 26.5151 27.7858 26.8534C27.3723 27.1778 26.8612 27.3434 26.3411 27.3217C25.6766 27.3533 25.033 27.0792 24.5859 26.574C24.1226 25.9828 23.8913 25.2354 23.9374 24.4783C23.8896 23.6987 24.1227 22.9283 24.5924 22.3134C25.0163 21.8052 25.6421 21.5218 26.2938 21.5427C26.9279 21.5239 27.536 21.8015 27.9468 22.2975C28.4068 22.9018 28.6351 23.658 28.5885 24.4233C28.5885 24.4783 28.5869 24.5621 28.5837 24.6725H24.815C24.8115 25.1794 24.9779 25.6722 25.2863 26.0684C25.5502 26.3826 25.9368 26.5601 26.3411 26.5526C26.6315 26.5607 26.9155 26.4643 27.1438 26.28C27.3979 26.0481 27.5813 25.7458 27.6721 25.4095V25.4095ZM24.8637 23.9032H27.6818C27.6739 23.5292 27.5617 23.1654 27.3584 22.8548C27.1131 22.5067 26.7173 22.3038 26.2987 22.3117C25.9231 22.3041 25.5624 22.4615 25.3073 22.7444C25.0287 23.0635 24.8712 23.4749 24.8637 23.9032Z" fill="#1A1918"/>
<path d="M31.5058 26.3656L31.6228 27.1953C31.4114 27.2471 31.195 27.2752 30.9776 27.279C30.7267 27.2934 30.4767 27.2374 30.2546 27.1168C30.0924 27.019 29.9658 26.8697 29.8939 26.6915C29.8031 26.3289 29.768 25.954 29.7898 25.5803V22.3866H29.1559V21.6602H29.7898V20.2892L30.6477 19.725V21.6602H31.5058V22.3866H30.6477V25.6339C30.6371 25.8079 30.6525 25.9826 30.6934 26.1519C30.722 26.2273 30.7732 26.2916 30.8395 26.3354C30.929 26.3854 31.0304 26.4088 31.1321 26.4029C31.2574 26.4 31.3823 26.3875 31.5058 26.3656" fill="#1A1918"/>
<path d="M32.0309 24.4322C31.9635 23.5941 32.2478 22.7664 32.8125 22.1569C33.2451 21.748 33.8157 21.5277 34.4037 21.5427C35.0516 21.5223 35.6753 21.7958 36.1087 22.2904C36.5764 22.8671 36.8128 23.6047 36.7701 24.3537C36.7956 24.9287 36.6957 25.5023 36.4775 26.0326C36.292 26.4298 35.9948 26.7609 35.6242 26.9833C35.2551 27.2082 34.833 27.3252 34.4037 27.3216C33.752 27.3466 33.1229 27.0741 32.6858 26.5775C32.2133 25.9718 31.9795 25.2062 32.0309 24.4321L32.0309 24.4322ZM32.9085 24.4339C32.8672 24.9982 33.017 25.5597 33.3327 26.0237C33.5913 26.3582 33.9848 26.553 34.4009 26.5527C34.817 26.5523 35.2102 26.3568 35.4683 26.0219C35.7854 25.5479 35.9351 24.977 35.8925 24.4037C35.9306 23.851 35.7794 23.3019 35.465 22.8513C35.2069 22.5178 34.8148 22.3231 34.3997 22.3223C33.9847 22.3216 33.5919 22.5149 33.3326 22.8474C33.0172 23.3103 32.8673 23.8707 32.9084 24.4339H32.9085Z" fill="#1A1918"/>
</g>
<defs>
<clipPath id="clip0_11_151">
<rect width="31.5267" height="21.0802" fill="white" transform="translate(8 6.44827)"/>
</clipPath>
</defs>
</svg>
