<svg width="48" height="34" viewBox="0 0 48 34" fill="none" xmlns="http://www.w3.org/2000/svg">
<path d="M10.1024 12.7547C10.5511 12.6038 11.0311 12.5219 11.5306 12.5219C13.7103 12.5219 15.5285 14.0801 15.9456 16.15L19.0345 15.5162C18.3257 11.9982 15.2358 9.35001 11.5306 9.35001C10.6822 9.35001 9.8657 9.48908 9.10345 9.74527L10.1024 12.7547Z" fill="#FFF200"/>
<path d="M6.42641 22.95L8.27587 20.5002C7.45032 19.6436 6.92927 18.393 6.92927 16.999C6.92927 15.6061 7.44984 14.3555 8.27514 13.4995L6.42471 11.05C5.02193 12.5054 4.13794 14.6312 4.13794 16.999C4.13794 19.368 5.02322 21.4946 6.42641 22.95" fill="#00A4E0"/>
<path d="M15.9466 17.85C15.528 19.9196 13.711 21.4758 11.5332 21.4758C11.0335 21.4758 10.5525 21.3937 10.1038 21.2423L9.10345 24.2533C9.86687 24.5108 10.6837 24.65 11.5332 24.65C15.235 24.65 18.3229 22.0036 19.0345 18.487L15.9466 17.85Z" fill="#EF4123"/>
<path fill-rule="evenodd" clip-rule="evenodd" d="M33.8959 11.05V19.7561L35.4188 20.3824L34.6984 22.0995L33.1923 21.4785C32.8536 21.3328 32.6245 21.1108 32.4504 20.8602C32.2832 20.6037 32.1592 20.2531 32.1592 19.7801V11.05H33.8959ZM22.3454 17.5206C22.3832 15.031 24.45 13.0436 26.9579 13.0817C29.0865 13.1148 30.8502 14.5938 31.3134 16.5609L23.0808 20.0515C22.6026 19.3262 22.3308 18.4537 22.3454 17.5206ZM24.2291 17.8697C24.2178 17.7652 24.2098 17.6581 24.2129 17.5501C24.2365 16.0832 25.4533 14.9128 26.9308 14.9371C27.7351 14.9477 28.4493 15.3131 28.932 15.8785L24.2291 17.8697ZM28.7587 19.4861C28.2625 19.9648 27.5897 20.2566 26.8467 20.2461C26.3375 20.2376 25.8657 20.0864 25.4645 19.8344L24.47 21.4064C25.1511 21.8335 25.9542 22.0862 26.82 22.0995C28.0803 22.1181 29.229 21.627 30.0643 20.816L28.7587 19.4861ZM40.2343 14.937C39.9376 14.937 39.6525 14.9846 39.3862 15.0733L38.7936 13.3117C39.2459 13.1619 39.7302 13.0805 40.2343 13.0805C42.4339 13.0805 44.2689 14.6305 44.6897 16.6895L42.8552 17.0605C42.608 15.8487 41.5285 14.937 40.2343 14.937ZM37.2224 20.9681L38.4619 19.5776C37.9083 19.0914 37.5597 18.3813 37.5597 17.5899C37.5597 16.7992 37.9083 16.0895 38.4614 15.6036L37.221 14.2131C36.2806 15.0393 35.6881 16.2465 35.6881 17.5899C35.6881 18.9349 36.281 20.1416 37.2224 20.9681ZM40.2342 20.2437C41.5272 20.2437 42.6066 19.3328 42.8552 18.1227L44.6891 18.4953C44.2663 20.5521 42.4319 22.1 40.2342 22.1C39.7298 22.1 39.2448 22.0183 38.7912 21.8678L39.3852 20.1069C39.6521 20.1953 39.9374 20.2437 40.2342 20.2437Z" fill="black"/>
</svg>
