<svg width="48" height="34" viewBox="0 0 48 34" fill="none" xmlns="http://www.w3.org/2000/svg">
<mask id="mask0_11_144" style="mask-type:alpha" maskUnits="userSpaceOnUse" x="5" y="8" width="39" height="18">
<path d="M5.14282 8.79311H43.0665V25.7278H5.14282V8.79311Z" fill="white"/>
</mask>
<g mask="url(#mask0_11_144)">
<path fill-rule="evenodd" clip-rule="evenodd" d="M5.57758 25.3651H35.7425C38.2498 25.3651 39.4709 24.7696 39.8271 23.2063C39.9634 22.6085 40.0824 22.0294 40.2997 20.9302C40.3595 20.6273 40.3894 20.476 40.4193 20.3252C40.4218 20.3129 40.4218 20.3129 40.4242 20.3005C40.3691 20.5783 41.3055 15.8601 41.5652 14.5503C41.9657 12.5312 42.3069 10.8096 42.6341 9.15578H15.5536L11.6399 9.15537C9.91659 9.23896 8.73639 9.94889 8.3971 11.1738C8.28974 11.5614 8.2131 11.9285 8.0855 12.6218C8.07524 12.6776 8.07524 12.6776 8.06497 12.7335C7.98956 13.144 7.95261 13.3383 7.90422 13.5699C7.62428 14.9102 7.3439 16.3123 7.00131 18.072C6.91128 18.5344 6.81871 19.0124 6.70133 19.6202C6.66353 19.8159 6.46083 20.8665 6.40309 21.1653C6.05708 22.9563 5.81601 24.1862 5.57758 25.3651Z" fill="#B32024" stroke="white" stroke-width="1.23741"/>
<path fill-rule="evenodd" clip-rule="evenodd" d="M31.3712 18.9028C30.9463 19.3294 29.7537 19.4506 29.8757 18.4307C29.977 17.5837 30.8761 17.4036 31.8504 17.526C31.778 17.9893 31.6949 18.5777 31.3712 18.9028ZM30.0291 15.5984C29.9885 15.8321 29.9262 16.0436 29.8757 16.2671C30.3622 16.1421 31.8771 15.7584 32.0231 16.4245C32.0715 16.6458 31.9879 16.8809 31.9272 17.0539C30.5573 16.9208 29.4407 17.1543 29.1471 18.1553C28.9504 18.8259 29.1691 19.4857 29.5881 19.6699C30.395 20.0245 31.3765 19.6183 31.7163 19.0602C31.681 19.2534 31.6476 19.4485 31.6587 19.6895H32.3682C32.3756 18.9926 32.4745 18.4284 32.5791 17.8013C32.6681 17.2672 32.8357 16.7385 32.8091 16.2671C32.7482 15.1877 31.0049 15.5696 30.0291 15.5984ZM37.1422 19.2371C36.5871 19.2493 36.3112 18.897 36.2985 18.3127C36.2765 17.2895 36.714 16.1527 37.6023 16.0508C38.0159 16.0034 38.3154 16.102 38.6185 16.2082C38.3403 17.3575 38.4407 19.2086 37.1422 19.2371ZM38.9827 13.8283C38.9121 14.4638 38.8176 15.075 38.6952 15.6574C36.6729 15.0008 35.4327 16.5271 35.4549 18.4111C35.4593 18.7754 35.5204 19.1367 35.7426 19.3944C36.1254 19.8386 37.2215 19.9449 37.7749 19.5715C37.882 19.4993 37.9915 19.3678 38.0625 19.2765C38.1159 19.2078 38.2005 19.028 38.2158 19.0797C38.1868 19.2794 38.1433 19.4644 38.1392 19.6895H38.8869C39.031 17.5689 39.4766 15.7575 39.8072 13.8283H38.9827ZM17.8735 18.9225C17.4325 19.4017 16.3481 19.3944 16.2631 18.588C16.2261 18.2372 16.3534 17.8693 16.4164 17.5063C16.4801 17.1389 16.526 16.7864 16.589 16.4638C17.0234 15.9196 18.3 15.8539 18.4296 16.7589C18.542 17.5446 18.2388 18.5256 17.8735 18.9225ZM18.5254 15.5984C17.8277 15.3295 16.9772 15.6505 16.6086 15.9559C16.6098 15.9693 16.5998 15.9711 16.589 15.9721C16.5952 15.9667 16.602 15.9613 16.6086 15.9559C16.6085 15.9547 16.6084 15.9537 16.6081 15.9525C16.6144 15.8211 16.6594 15.7297 16.6657 15.5984H15.9563C15.6607 17.6161 15.3101 19.5773 14.9401 21.5187H15.7645C15.8838 20.7626 15.9627 19.9649 16.1288 19.2568C16.3171 20.0016 17.5465 19.8592 18.0653 19.5715C19.1357 18.9778 19.9613 16.1518 18.5254 15.5984ZM22.4366 17.0146H20.5003C20.5615 16.5579 20.962 16.0559 21.593 16.0312C22.187 16.0079 22.6122 16.2549 22.4366 17.0146ZM21.6506 15.5198C21.0549 15.5668 20.5513 15.7427 20.1935 16.1295C19.7546 16.6039 19.3991 17.6527 19.5032 18.6077C19.6518 19.9703 21.3056 19.9215 22.6284 19.5912C22.6509 19.3521 22.7073 19.1476 22.7434 18.9225C22.1986 19.1316 21.2524 19.4236 20.6919 19.0602C20.2688 18.7857 20.2663 18.0906 20.4044 17.4866C21.2934 17.4576 22.2174 17.4632 23.1078 17.4866C23.1642 17.0585 23.3258 16.5917 23.1844 16.1689C22.9978 15.6107 22.3301 15.4661 21.6506 15.5198ZM14.4033 15.5984C14.3809 15.6017 14.3824 15.6295 14.3841 15.6574C14.2024 17.0511 13.9566 18.379 13.6939 19.6895H14.5183C14.7164 18.2865 14.9434 16.913 15.2277 15.5984H14.4033ZM35.9151 15.6181C35.1865 15.2444 34.58 15.8716 34.343 16.2474C34.4105 16.0545 34.4143 15.7962 34.4772 15.5984H33.7486C33.5522 17.0032 33.3153 18.3666 33.0392 19.6895H33.8828C33.8882 19.1473 33.9919 18.7462 34.0745 18.2144C34.2508 17.079 34.5096 15.8337 35.8001 16.2082C35.8429 16.0161 35.8607 15.7983 35.9151 15.6181ZM26.6547 18.7257C26.5787 18.5244 26.559 18.1918 26.5779 17.939C26.6206 17.3706 26.8224 16.6787 27.134 16.3655C27.5639 15.9332 28.4126 16.0047 29.0896 16.2474C29.1106 16.0134 29.1564 15.8046 29.1855 15.5788C28.0753 15.3928 27.0216 15.5085 26.4629 16.1098C25.9161 16.6985 25.5576 18.0515 25.811 18.9028C26.1077 19.8989 27.4376 19.9531 28.5145 19.5715C28.5621 19.3713 28.5873 19.1481 28.6295 18.9421C28.0412 19.2557 26.9161 19.4187 26.6547 18.7257ZM26.1946 15.5984C25.4636 15.2956 24.8889 15.8074 24.6224 16.2869C24.6828 16.0735 24.7077 15.8237 24.7566 15.5984H24.028C23.8499 17.0155 23.5873 18.3459 23.3378 19.6895H24.1623C24.2778 18.8919 24.3277 17.8169 24.584 17.0539C24.7889 16.4443 25.325 15.9249 26.0987 16.2082C26.1095 15.9833 26.1723 15.8116 26.1946 15.5984ZM12.9078 13.9463C12.7901 14.7302 12.6574 15.4989 12.5244 16.2671C11.6703 16.2764 10.7982 16.3105 9.97439 16.2474C10.13 15.4959 10.2416 14.699 10.3962 13.9463H9.47591C9.14642 15.8637 8.84678 17.8116 8.47894 19.6895H9.41836C9.56577 18.7261 9.70356 17.7529 9.89764 16.8376C10.6987 16.8173 11.6587 16.782 12.4285 16.8573C12.2698 17.809 12.078 18.7267 11.93 19.6895H12.8695C13.1713 17.7438 13.4894 15.8148 13.8665 13.9463H12.9078ZM15.2469 14.8117C15.4113 14.6956 15.6229 14.1665 15.3811 13.9463C15.3045 13.8765 15.1763 13.8563 14.9976 13.8873C14.8319 13.916 14.7365 13.9737 14.6717 14.0643C14.5675 14.2098 14.4721 14.6486 14.6334 14.8117C14.7904 14.9705 15.1423 14.8855 15.2469 14.8117Z" fill="#FEFEFE"/>
</g>
</svg>
