<svg width="84" height="58" viewBox="0 0 84 58" fill="none" xmlns="http://www.w3.org/2000/svg">
<mask id="mask0_633_443" style="mask-type:alpha" maskUnits="userSpaceOnUse" x="9" y="15" width="67" height="29">
<path d="M9 15H75.3665V43.8885H9V15Z" fill="white"/>
</mask>
<g mask="url(#mask0_633_443)">
<path fill-rule="evenodd" clip-rule="evenodd" d="M9.76083 43.2698H62.5495C66.9372 43.2698 69.0741 42.2541 69.6976 39.5872C69.936 38.5674 70.1442 37.5795 70.5245 35.7045C70.6292 35.1877 70.6815 34.9296 70.7339 34.6724C70.7382 34.6513 70.7382 34.6513 70.7425 34.6302C70.646 35.1042 72.2846 27.0554 72.7393 24.8212C73.4401 21.3768 74.0371 18.4398 74.6097 15.6187H27.2189L20.3699 15.618C17.3541 15.7606 15.2888 16.9716 14.695 19.0611C14.5071 19.7224 14.373 20.3486 14.1497 21.5314C14.1317 21.6265 14.1317 21.6265 14.1138 21.7219C13.9818 22.4221 13.9171 22.7535 13.8325 23.1486C13.3426 25.435 12.8519 27.8269 12.2524 30.8287C12.0948 31.6176 11.9328 32.4329 11.7274 33.4697C11.6613 33.8036 11.3065 35.5957 11.2055 36.1055C10.6 39.1607 10.1781 41.2589 9.76083 43.2698Z" fill="#B32024" stroke="white" stroke-width="1.23741"/>
<path fill-rule="evenodd" clip-rule="evenodd" d="M54.8995 32.2459C54.156 32.9737 52.069 33.1805 52.2825 31.4406C52.4598 29.9957 54.0332 29.6885 55.7383 29.8972C55.6115 30.6876 55.4661 31.6913 54.8995 32.2459ZM52.5509 26.6091C52.4799 27.0077 52.3708 27.3685 52.2825 27.7498C53.1339 27.5364 55.7849 26.8819 56.0404 28.0182C56.1252 28.3957 55.9789 28.7969 55.8726 29.0919C53.4752 28.8649 51.5213 29.2631 51.0075 30.9708C50.6633 32.1147 51.046 33.2403 51.7792 33.5545C53.1913 34.1594 54.9089 33.4664 55.5035 32.5144C55.4418 32.844 55.3833 33.1768 55.4028 33.588H56.6444C56.6574 32.3991 56.8304 31.4367 57.0135 30.3668C57.1693 29.4558 57.4625 28.5539 57.4159 27.7498C57.3093 25.9083 54.2586 26.5598 52.5509 26.6091ZM64.9989 32.8162C64.0275 32.8371 63.5446 32.236 63.5224 31.2393C63.4839 29.4939 64.2495 27.5547 65.804 27.3807C66.5278 27.2998 67.052 27.4681 67.5825 27.6492C67.0955 29.6098 67.2712 32.7675 64.9989 32.8162ZM68.2198 23.5894C68.0961 24.6735 67.9308 25.7162 67.7166 26.7097C64.1776 25.5895 62.0073 28.1933 62.0461 31.4071C62.0538 32.0286 62.1608 32.6449 62.5495 33.0846C63.2194 33.8423 65.1376 34.0236 66.1061 33.3867C66.2936 33.2635 66.4851 33.0391 66.6094 32.8834C66.7028 32.7662 66.8509 32.4595 66.8776 32.5477C66.8268 32.8884 66.7508 33.2039 66.7436 33.588H68.0521C68.3043 29.9704 69.084 26.8805 69.6626 23.5894H68.2198ZM31.2787 32.2795C30.5069 33.097 28.6092 33.0845 28.4604 31.709C28.3956 31.1105 28.6185 30.4829 28.7288 29.8637C28.8403 29.2369 28.9205 28.6356 29.0307 28.0853C29.791 27.1569 32.0251 27.0449 32.2518 28.5887C32.4485 29.929 31.918 31.6024 31.2787 32.2795ZM32.4195 26.6091C31.1984 26.1504 29.7101 26.6979 29.065 27.2188C29.0672 27.2417 29.0496 27.2448 29.0307 27.2465C29.0417 27.2373 29.0535 27.228 29.065 27.2188C29.0649 27.2168 29.0647 27.2151 29.0642 27.2131C29.0752 26.989 29.154 26.833 29.1649 26.6091H27.9235C27.4062 30.0509 26.7927 33.3965 26.1452 36.7083H27.5879C27.7967 35.4185 27.9347 34.0578 28.2255 32.8498C28.555 34.1203 30.7064 33.8775 31.6143 33.3867C33.4874 32.3738 34.9322 27.553 32.4195 26.6091ZM39.2641 29.0248H35.8755C35.9827 28.2458 36.6836 27.3895 37.7878 27.3472C38.8272 27.3075 39.5713 27.7288 39.2641 29.0248ZM37.8885 26.4749C36.846 26.5552 35.9648 26.8552 35.3386 27.515C34.5706 28.3242 33.9485 30.1133 34.1306 31.7426C34.3907 34.067 37.2848 33.9836 39.5997 33.4202C39.6391 33.0123 39.7378 32.6635 39.801 32.2795C38.8475 32.6363 37.1917 33.1344 36.2109 32.5144C35.4704 32.0461 35.4661 30.8605 35.7077 29.8301C37.2634 29.7806 38.8805 29.7901 40.4386 29.8301C40.5374 29.0998 40.8202 28.3035 40.5727 27.5821C40.2462 26.6299 39.0777 26.3833 37.8885 26.4749ZM25.2058 26.6091C25.1667 26.6147 25.1693 26.6621 25.1721 26.7097C24.8543 29.0871 24.4241 31.3524 23.9643 33.588H25.407C25.7537 31.1945 26.1509 28.8516 26.6485 26.6091H25.2058ZM62.8515 26.6426C61.5763 26.0051 60.515 27.075 60.1003 27.7162C60.2183 27.3871 60.2251 26.9465 60.335 26.6091H59.0601C58.7163 29.0054 58.3018 31.3312 57.8186 33.588H59.2949C59.3044 32.663 59.4859 31.9788 59.6304 31.0715C59.939 29.1347 60.3918 27.0105 62.6502 27.6492C62.7251 27.3216 62.7563 26.95 62.8515 26.6426ZM46.6457 31.9439C46.5127 31.6003 46.4782 31.033 46.5114 30.6017C46.5861 29.6322 46.9393 28.4519 47.4845 27.9176C48.2368 27.1801 49.7221 27.3022 50.9069 27.7162C50.9435 27.3169 51.0238 26.9608 51.0747 26.5756C49.1317 26.2582 47.2877 26.4556 46.3101 27.4814C45.3532 28.4856 44.7258 30.7938 45.1693 32.2459C45.6884 33.9452 48.0157 34.0376 49.9004 33.3867C49.9837 33.0451 50.0278 32.6643 50.1016 32.313C49.072 32.848 47.1033 33.126 46.6457 31.9439ZM45.8405 26.6091C44.5613 26.0924 43.5555 26.9655 43.0893 27.7834C43.1949 27.4196 43.2386 26.9934 43.324 26.6091H42.049C41.7373 29.0264 41.2779 31.2959 40.8412 33.588H42.284C42.4862 32.2274 42.5735 30.3934 43.022 29.0919C43.3806 28.0519 44.3188 27.1659 45.6727 27.6492C45.6917 27.2656 45.8015 26.9727 45.8405 26.6091ZM22.5887 23.7906C22.3826 25.1279 22.1505 26.4392 21.9176 27.7498C20.423 27.7656 18.8969 27.8237 17.4552 27.7162C17.7275 26.4341 17.9228 25.0748 18.1934 23.7906H16.5829C16.0062 27.0615 15.4819 30.3844 14.8382 33.588H16.4822C16.7401 31.9445 16.9813 30.2844 17.3209 28.7229C18.7228 28.6883 20.4028 28.6281 21.7498 28.7565C21.4722 30.38 21.1365 31.9456 20.8775 33.588H22.5216C23.0498 30.2689 23.6065 26.9782 24.2663 23.7906H22.5887ZM26.6821 25.267C26.9697 25.0689 27.3401 24.1664 26.917 23.7906C26.7829 23.6717 26.5586 23.6372 26.2459 23.6901C25.9558 23.739 25.7889 23.8375 25.6755 23.992C25.4931 24.2402 25.3263 24.9888 25.6084 25.267C25.8832 25.5378 26.499 25.3929 26.6821 25.267Z" fill="#FEFEFE"/>
</g>
</svg>
