<svg width="48" height="34" viewBox="0 0 48 34" fill="none"
    xmlns="http://www.w3.org/2000/svg">
    <path fill-rule="evenodd" clip-rule="evenodd" d="M17.5854 26.257V27.5124V28.7677H17.0497V28.4629C16.8798 28.6889 16.622 28.8308 16.2715 28.8308C15.5807 28.8308 15.0391 28.2795 15.0391 27.5124C15.0391 26.7458 15.5807 26.1939 16.2715 26.1939C16.622 26.1939 16.8798 26.3358 17.0497 26.5618V26.257H17.5854ZM16.3382 26.7085C15.8745 26.7085 15.5907 27.0711 15.5907 27.5123C15.5907 27.9536 15.8745 28.3162 16.3382 28.3162C16.7812 28.3162 17.0804 27.9693 17.0804 27.5123C17.0804 27.0554 16.7812 26.7085 16.3382 26.7085ZM35.6879 27.5123C35.6879 27.0711 35.9717 26.7085 36.4354 26.7085C36.879 26.7085 37.1776 27.0554 37.1776 27.5123C37.1776 27.9693 36.879 28.3162 36.4354 28.3162C35.9717 28.3162 35.6879 27.9536 35.6879 27.5123ZM37.6832 25.2488V27.5124V28.7677H37.1469V28.4629C36.977 28.6889 36.7192 28.8308 36.3687 28.8308C35.6779 28.8308 35.1363 28.2795 35.1363 27.5124C35.1363 26.7458 35.6779 26.1939 36.3687 26.1939C36.7192 26.1939 36.977 26.3358 37.1469 26.5618V25.2488H37.6832ZM24.2349 26.6827C24.58 26.6827 24.8018 26.9033 24.8585 27.2917H23.58C23.6372 26.9292 23.8532 26.6827 24.2349 26.6827ZM23.0184 27.5124C23.0184 26.7296 23.5234 26.1939 24.2455 26.1939C24.9357 26.1939 25.4101 26.7296 25.4154 27.5124C25.4154 27.5857 25.4101 27.6542 25.4048 27.7222H23.5753C23.6526 28.1743 23.967 28.3372 24.3122 28.3372C24.5593 28.3372 24.8225 28.2422 25.029 28.0745L25.2915 28.4791C24.9924 28.7364 24.6526 28.8308 24.2815 28.8308C23.544 28.8308 23.0184 28.3108 23.0184 27.5124ZM30.7139 27.5123C30.7139 27.0711 30.9977 26.7085 31.4614 26.7085C31.9044 26.7085 32.2036 27.0554 32.2036 27.5123C32.2036 27.9693 31.9044 28.3162 31.4614 28.3162C30.9977 28.3162 30.7139 27.9536 30.7139 27.5123ZM32.7086 26.257V27.5124V28.7677H32.1729V28.4629C32.0024 28.6889 31.7452 28.8308 31.3947 28.8308C30.7039 28.8308 30.1623 28.2795 30.1623 27.5124C30.1623 26.7458 30.7039 26.1939 31.3947 26.1939C31.7452 26.1939 32.0024 26.3358 32.1729 26.5618V26.257H32.7086ZM27.6885 27.5124C27.6885 28.2741 28.2089 28.8308 29.003 28.8308C29.374 28.8308 29.6212 28.7466 29.8891 28.5314L29.6319 28.0901C29.4307 28.2374 29.2195 28.3162 28.987 28.3162C28.5593 28.3108 28.2449 27.9957 28.2449 27.5124C28.2449 27.029 28.5593 26.7139 28.987 26.7085C29.2195 26.7085 29.4307 26.7873 29.6319 26.9346L29.8891 26.4933C29.6212 26.2781 29.374 26.1939 29.003 26.1939C28.2089 26.1939 27.6885 26.7506 27.6885 27.5124ZM33.9456 26.5618C34.0849 26.3412 34.286 26.1939 34.5952 26.1939C34.7037 26.1939 34.8583 26.2149 34.9769 26.2624L34.8117 26.7771C34.6984 26.7296 34.5852 26.7139 34.4766 26.7139C34.1262 26.7139 33.9509 26.9448 33.9509 27.3602V28.7677H33.4147V26.257H33.9456V26.5618ZM20.2349 26.4566C19.977 26.2835 19.6219 26.1939 19.2302 26.1939C18.606 26.1939 18.2042 26.4987 18.2042 26.9977C18.2042 27.4071 18.5033 27.6597 19.0543 27.7384L19.3074 27.7751C19.6012 27.8172 19.7399 27.8959 19.7399 28.0378C19.7399 28.232 19.544 28.3426 19.1782 28.3426C18.8071 28.3426 18.5393 28.2218 18.3588 28.0799L18.1063 28.505C18.4001 28.7256 18.7712 28.8308 19.1729 28.8308C19.8844 28.8308 20.2968 28.4893 20.2968 28.0114C20.2968 27.5701 19.9723 27.3392 19.436 27.2604L19.1835 27.2232C18.9517 27.1919 18.7658 27.145 18.7658 26.9767C18.7658 26.7927 18.9411 26.6827 19.2349 26.6827C19.5493 26.6827 19.8537 26.8035 20.003 26.8979L20.2349 26.4566ZM26.498 26.5618C26.6366 26.3412 26.8378 26.1939 27.1469 26.1939C27.2555 26.1939 27.4101 26.2149 27.5287 26.2624L27.3635 26.7771C27.2502 26.7296 27.1369 26.7139 27.0284 26.7139C26.6779 26.7139 26.5027 26.9448 26.5027 27.3602V28.7677H25.967V26.257H26.498V26.5618ZM22.5752 26.257H21.6991V25.4953L21.1575 25.4953V26.257H20.6578V26.756H21.1575V27.9013C21.1575 28.4839 21.3794 28.8308 22.013 28.8308C22.2454 28.8308 22.5133 28.7575 22.6832 28.6366L22.5286 28.1689C22.3687 28.2633 22.1935 28.3108 22.0543 28.3108C21.7864 28.3108 21.6991 28.1424 21.6991 27.8905V26.756H22.5752V26.257ZM14.5653 27.1919V28.7677H14.0237V27.3705C14.0237 26.9448 13.8485 26.7085 13.4827 26.7085C13.127 26.7085 12.8798 26.94 12.8798 27.3759V28.7677H12.3382V27.3705C12.3382 26.9448 12.1582 26.7085 11.8025 26.7085C11.4361 26.7085 11.199 26.94 11.199 27.3759V28.7677H10.658V26.257H11.1942V26.5666C11.3954 26.2726 11.6526 26.1939 11.9158 26.1939C12.2922 26.1939 12.56 26.3622 12.7299 26.6406C12.9571 26.2883 13.2815 26.1885 13.596 26.1939C14.1942 26.1993 14.5653 26.5985 14.5653 27.1919Z" fill="#1A1918"/>
    <path d="M28.1764 21.9909H20.0573V7.12159H28.1764V21.9909Z" fill="#FF5F00"/>
    <path d="M20.5724 14.5565C20.5724 11.5402 21.9582 8.85338 24.1163 7.12188C22.5382 5.85572 20.5464 5.1 18.3818 5.1C13.2574 5.1 9.10345 9.33376 9.10345 14.5565C9.10345 19.7793 13.2574 24.013 18.3818 24.013C20.5464 24.013 22.5382 23.2573 24.1163 21.9911C21.9582 20.2596 20.5724 17.5728 20.5724 14.5565" fill="#EB001B"/>
    <path d="M39.1298 14.5565C39.1298 19.7793 34.9758 24.013 29.8514 24.013C27.6868 24.013 25.6951 23.2573 24.1163 21.9911C26.275 20.2596 27.6608 17.5728 27.6608 14.5565C27.6608 11.5402 26.275 8.85338 24.1163 7.12188C25.6951 5.85572 27.6868 5.1 29.8514 5.1C34.9758 5.1 39.1298 9.33376 39.1298 14.5565" fill="#F79E1B"/>
</svg>
