<svg width="84" height="58" viewBox="0 0 84 58" fill="none" xmlns="http://www.w3.org/2000/svg">
<path fill-rule="evenodd" clip-rule="evenodd" d="M30.7744 44.7914V46.9329V49.0743H29.837V48.5543C29.5396 48.94 29.0885 49.182 28.4752 49.182C27.2662 49.182 26.3184 48.2415 26.3184 46.9329C26.3184 45.6252 27.2662 44.6837 28.4752 44.6837C29.0885 44.6837 29.5396 44.9258 29.837 45.3114V44.7914H30.7744ZM28.5918 45.5616C27.7803 45.5616 27.2837 46.1801 27.2837 46.9329C27.2837 47.6856 27.7803 48.3041 28.5918 48.3041C29.3672 48.3041 29.8906 47.7123 29.8906 46.9329C29.8906 46.1534 29.3672 45.5616 28.5918 45.5616ZM62.4539 46.9329C62.4539 46.1801 62.9505 45.5616 63.762 45.5616C64.5383 45.5616 65.0608 46.1534 65.0608 46.9329C65.0608 47.7123 64.5383 48.3041 63.762 48.3041C62.9505 48.3041 62.4539 47.6856 62.4539 46.9329ZM65.9456 43.0715V46.9329V49.0743H65.0071V48.5543C64.7097 48.94 64.2586 49.182 63.6453 49.182C62.4363 49.182 61.4885 48.2415 61.4885 46.9329C61.4885 45.6252 62.4363 44.6837 63.6453 44.6837C64.2586 44.6837 64.7097 44.9258 65.0071 45.3114V43.0715H65.9456ZM42.4111 45.5175C43.015 45.5175 43.4032 45.8939 43.5024 46.5565H41.2651C41.3652 45.938 41.7431 45.5175 42.4111 45.5175ZM40.2822 46.9329C40.2822 45.5975 41.1659 44.6837 42.4296 44.6837C43.6376 44.6837 44.4677 45.5975 44.477 46.9329C44.477 47.058 44.4677 47.1749 44.4584 47.2908H41.2568C41.392 48.062 41.9423 48.34 42.5463 48.34C42.9789 48.34 43.4394 48.1779 43.8007 47.8918L44.2602 48.582C43.7367 49.021 43.142 49.182 42.4926 49.182C41.2021 49.182 40.2822 48.2949 40.2822 46.9329ZM53.7493 46.9329C53.7493 46.1801 54.246 45.5616 55.0574 45.5616C55.8328 45.5616 56.3563 46.1534 56.3563 46.9329C56.3563 47.7123 55.8328 48.3041 55.0574 48.3041C54.246 48.3041 53.7493 47.6856 53.7493 46.9329ZM57.24 44.7914V46.9329V49.0743H56.3026V48.5543C56.0042 48.94 55.5541 49.182 54.9408 49.182C53.7318 49.182 52.784 48.2415 52.784 46.9329C52.784 45.6252 53.7318 44.6837 54.9408 44.6837C55.5541 44.6837 56.0042 44.9258 56.3026 45.3114V44.7914H57.24ZM48.4549 46.9329C48.4549 48.2323 49.3655 49.182 50.7552 49.182C51.4046 49.182 51.8372 49.0384 52.3059 48.6713L51.8558 47.9185C51.5037 48.1697 51.1341 48.3041 50.7273 48.3041C49.9788 48.2949 49.4285 47.7574 49.4285 46.9329C49.4285 46.1083 49.9788 45.5709 50.7273 45.5616C51.1341 45.5616 51.5037 45.696 51.8558 45.9473L52.3059 45.1945C51.8372 44.8273 51.4046 44.6837 50.7552 44.6837C49.3655 44.6837 48.4549 45.6334 48.4549 46.9329ZM59.4049 45.3114C59.6485 44.935 60.0006 44.6837 60.5416 44.6837C60.7316 44.6837 61.0021 44.7196 61.2096 44.8006L60.9205 45.6785C60.7223 45.5975 60.5241 45.5709 60.3341 45.5709C59.7208 45.5709 59.4142 45.9647 59.4142 46.6734V49.0743H58.4757V44.7914H59.4049V45.3114ZM35.411 45.1319C34.9599 44.8365 34.3383 44.6837 33.6528 44.6837C32.5605 44.6837 31.8574 45.2037 31.8574 46.0549C31.8574 46.7534 32.3808 47.1841 33.3451 47.3185L33.788 47.381C34.3022 47.4528 34.5448 47.5872 34.5448 47.8292C34.5448 48.1605 34.2021 48.3492 33.5619 48.3492C32.9125 48.3492 32.4438 48.1431 32.1279 47.901L31.686 48.6261C32.2002 49.0025 32.8496 49.182 33.5526 49.182C34.7978 49.182 35.5194 48.5995 35.5194 47.7841C35.5194 47.0313 34.9516 46.6375 34.0131 46.5031L33.5712 46.4395C33.1655 46.3862 32.8403 46.3062 32.8403 46.019C32.8403 45.7052 33.1469 45.5175 33.6611 45.5175C34.2113 45.5175 34.7441 45.7237 35.0053 45.8847L35.411 45.1319ZM46.3715 45.3114C46.6141 44.935 46.9662 44.6837 47.5072 44.6837C47.6972 44.6837 47.9677 44.7196 48.1752 44.8006L47.8861 45.6785C47.6879 45.5975 47.4896 45.5709 47.2997 45.5709C46.6864 45.5709 46.3798 45.9647 46.3798 46.6734V49.0743H45.4423V44.7914H46.3715V45.3114ZM39.5067 44.7914H37.9735V43.492H37.0257V44.7914H36.1512V45.6427H37.0257V47.5964C37.0257 48.5902 37.4139 49.182 38.5227 49.182C38.9295 49.182 39.3982 49.0569 39.6956 48.8507L39.4251 48.0528C39.1453 48.2138 38.8387 48.2949 38.595 48.2949C38.1263 48.2949 37.9735 48.0077 37.9735 47.578V45.6427H39.5067V44.7914ZM25.4893 46.3862V49.0743H24.5415V46.6908C24.5415 45.9647 24.2349 45.5616 23.5948 45.5616C22.9722 45.5616 22.5396 45.9565 22.5396 46.7V49.0743H21.5918V46.6908C21.5918 45.9647 21.277 45.5616 20.6544 45.5616C20.0132 45.5616 19.5982 45.9565 19.5982 46.7V49.0743H18.6515V44.7914H19.5899V45.3196C19.942 44.8181 20.3922 44.6837 20.8526 44.6837C21.5113 44.6837 21.98 44.9709 22.2774 45.4457C22.6749 44.8447 23.2427 44.6745 23.793 44.6837C24.8399 44.6929 25.4893 45.3739 25.4893 46.3862Z" fill="#231F20"/>
<path d="M49.3087 37.5138H35.1003V12.1486H49.3087V37.5138Z" fill="#FF5F00"/>
<path d="M36.0017 24.8317C36.0017 19.6863 38.4269 15.1029 42.2035 12.1491C39.4418 9.98921 35.9562 8.70003 32.1682 8.70003C23.2004 8.70003 15.931 15.9223 15.931 24.8317C15.931 33.7411 23.2004 40.9634 32.1682 40.9634C35.9562 40.9634 39.4418 39.6743 42.2035 37.5143C38.4269 34.5606 36.0017 29.9772 36.0017 24.8317Z" fill="#EB001B"/>
<path d="M68.4771 24.8317C68.4771 33.7411 61.2077 40.9634 52.2399 40.9634C48.4519 40.9634 44.9664 39.6743 42.2036 37.5143C45.9813 34.5606 48.4065 29.9772 48.4065 24.8317C48.4065 19.6863 45.9813 15.1029 42.2036 12.1491C44.9664 9.98921 48.4519 8.70003 52.2399 8.70003C61.2077 8.70003 68.4771 15.9223 68.4771 24.8317Z" fill="#F79E1B"/>
</svg>
