<svg width="48" height="34" viewBox="0 0 48 34" fill="none" xmlns="http://www.w3.org/2000/svg">
<path d="M17.3803 15.813C17.3803 11.5089 13.9376 8 9.69037 8C5.44362 8 2.00087 11.5089 2.00087 15.813C2.00087 15.9246 2 16.2318 2 16.2707C2 20.837 5.00916 24.5354 9.68951 24.5354C14.3988 24.5354 17.3803 20.8383 17.3803 16.2714C17.3803 16.1121 17.3803 16.02 17.3803 15.813Z" fill="#0A0080"/>
<path d="M17.0863 15.8099C17.0863 19.8679 13.7759 23.1577 9.69233 23.1577C5.60871 23.1577 2.29837 19.8679 2.29837 15.8099C2.29837 11.7511 5.60871 8.46137 9.69233 8.46137C13.7759 8.46137 17.0863 11.7511 17.0863 15.8099Z" fill="#00BCFF"/>
<path d="M7.23645 13.4914C7.23255 13.5028 7.15899 13.6218 7.20659 13.7166C7.32342 13.9485 7.68388 14.0809 8.04824 13.9539C8.26503 13.8786 8.54327 13.5351 8.81286 13.2023C9.10452 12.8419 9.39444 12.4816 9.68567 12.3377C9.99376 12.1851 10.1915 12.251 10.3222 12.3122C10.4654 12.3781 10.6338 12.5246 10.9025 12.8379C11.4083 13.4288 13.4426 16.1879 13.7939 16.6645C14.0774 16.4655 15.3353 15.6245 17.045 15.0389C16.8966 13.6231 16.3418 12.327 15.501 11.2661C14.3292 12.0312 12.8969 12.4305 11.4966 11.3676C11.4893 11.3629 10.7311 10.8056 9.98381 10.8332C8.87214 10.8728 8.39095 11.6204 7.88164 12.411L7.23645 13.4914Z" fill="white"/>
<path d="M13.7117 16.9652C13.6879 16.9322 11.3196 13.7127 10.7834 13.0868C10.4727 12.7251 10.3001 12.6323 10.1188 12.5967C10.0244 12.5772 9.89376 12.6048 9.80289 12.6438C9.55321 12.7493 9.22693 13.0881 8.93701 13.4451C8.63713 13.8162 8.35413 14.1658 8.0919 14.2572C7.75654 14.3742 7.34718 14.2357 7.16024 14.0401C7.08452 13.9607 7.03129 13.8693 7.00576 13.7765C6.93653 13.5278 7.06375 13.3288 7.08495 13.2959L7.73836 12.1974C7.81452 12.0797 7.89068 11.9621 7.969 11.8458C7.75827 11.8888 7.56311 11.9722 7.37358 12.0542C7.13688 12.1577 6.90926 12.2559 6.67862 12.2559C6.58256 12.2559 6.06718 12.1248 5.96939 12.0831C5.37785 11.8316 4.85858 11.5869 4.08358 11.0242C3.15452 12.0992 2.53312 13.4424 2.35354 14.9221C2.48726 14.9772 2.70232 15.0767 2.79276 15.1077C4.89493 15.8337 5.54964 16.582 5.66864 16.7386C5.79716 16.5161 5.9828 16.3756 6.19008 16.3756C6.42245 16.3762 6.63232 16.5571 6.75954 16.8381C6.87984 16.6902 7.046 16.5645 7.26064 16.5645C7.358 16.5645 7.45926 16.5927 7.56138 16.6465C7.79851 16.7729 7.92097 17.0183 7.98458 17.2401C8.0642 17.1843 8.162 17.1433 8.2771 17.144C8.39048 17.144 8.50818 17.1836 8.62675 17.2636C9.01447 17.5218 9.07461 18.1134 9.03956 18.5591C9.06726 18.5544 9.09495 18.5524 9.12308 18.5524C9.58263 18.5531 9.95651 19.1333 9.95651 19.8479C9.95651 20.0691 9.92016 20.2768 9.85655 20.459C9.9816 20.5686 10.3005 20.8153 10.5805 20.7602C10.8042 20.7165 10.889 20.5975 10.9193 20.5309C10.9401 20.4852 10.9622 20.4314 10.9418 20.3931L10.3486 19.3692C10.3486 19.3692 10.2508 19.2254 10.2832 19.1702C10.3165 19.1131 10.3771 19.1951 10.4195 19.2502C10.7216 19.6422 11.0902 20.2331 11.0902 20.2331C11.0963 20.2398 11.121 20.3144 11.2573 20.3528C11.3745 20.385 11.5823 20.3662 11.7259 20.1827C11.7623 20.1363 11.7986 20.0785 11.8289 20.0186C11.8267 20.0213 11.8246 20.026 11.8224 20.0274C11.9739 19.7255 11.8055 19.4203 11.8055 19.4203L11.1127 18.2122C11.1127 18.2122 11.0141 18.0697 11.0474 18.0126C11.0777 17.9628 11.1413 18.0381 11.185 18.0939C11.404 18.379 11.7138 18.8617 12.0111 19.3134C12.0686 19.38 12.33 19.6307 12.6753 19.2778C12.8852 19.064 12.9272 18.8018 12.9211 18.6035C12.9068 18.3413 12.7748 18.1544 12.7748 18.1544L11.8289 16.6767C11.8289 16.6767 11.7289 16.5443 11.7644 16.4771C11.7934 16.4206 11.8583 16.502 11.9007 16.5571C12.2019 16.949 13.018 18.1114 13.018 18.1114C13.0297 18.1242 13.3114 18.4361 13.6598 18.0912C13.7844 17.9675 13.864 17.7813 13.8709 17.5642C13.8826 17.1884 13.7117 16.9652 13.7117 16.9652Z" fill="white"/>
<path d="M9.1243 18.8383C8.97761 18.8356 8.81707 18.9707 8.7963 18.9512C8.78461 18.9391 8.80495 18.8477 8.8188 18.7946C8.83308 18.7421 9.02607 17.8393 8.55527 17.5253C8.19481 17.2853 7.97455 17.5556 7.89883 17.6779C7.87892 17.7102 7.87027 17.7075 7.86767 17.6665C7.86075 17.5038 7.81358 17.0641 7.50288 16.9162C7.05848 16.7051 6.77244 17.1871 6.69975 17.3613C6.66729 16.9673 6.45353 16.6621 6.19086 16.6614C5.9057 16.6614 5.67462 17.0197 5.67462 17.4628C5.67419 17.9051 5.90527 18.2641 6.19043 18.2641C6.3289 18.2648 6.45439 18.1788 6.547 18.0409C6.55002 18.045 6.55132 18.0524 6.54959 18.0678C6.52796 18.2655 6.48814 18.9862 6.97366 19.2799C7.16839 19.3969 7.33412 19.3095 7.47129 19.1603C7.51197 19.1152 7.51889 19.1341 7.51284 19.1939C7.49553 19.3794 7.5176 19.7761 7.87589 20.0013C8.14807 20.1734 8.30948 19.9973 8.41507 19.846C8.46093 19.7808 8.47348 19.7909 8.47565 19.8917C8.48863 20.4282 8.77552 20.8537 9.12343 20.8544C9.48216 20.8544 9.77295 20.404 9.77295 19.8473C9.77339 19.29 9.48303 18.8443 9.1243 18.8383Z" fill="white"/>
<path d="M9.12263 20.78C8.79766 20.7794 8.53326 20.3868 8.52114 19.8874C8.52071 19.8443 8.51768 19.7301 8.4558 19.7301C8.42984 19.7301 8.40777 19.7543 8.38224 19.7899C8.31084 19.8927 8.21997 19.9976 8.08712 19.9976C8.02654 19.9976 7.9612 19.9754 7.8924 19.9317C7.54881 19.7159 7.54405 19.3496 7.5579 19.2024C7.5618 19.1627 7.56309 19.1217 7.54578 19.0901L7.52458 19.0612H7.50338C7.48607 19.0612 7.46789 19.072 7.44366 19.0989C7.34413 19.2071 7.24894 19.2595 7.15201 19.2595C7.09878 19.2595 7.04426 19.2427 6.9893 19.2098C6.53754 18.9369 6.57345 18.2741 6.59552 18.0751C6.59855 18.0341 6.59206 18.0032 6.57562 17.9823L6.5436 17.9413L6.51374 17.9857C6.42589 18.1175 6.31036 18.19 6.18963 18.19C5.93042 18.1894 5.71969 17.8627 5.72012 17.4607C5.72012 17.0581 5.93129 16.7321 6.19006 16.7321C6.42416 16.7321 6.62322 17.0056 6.65307 17.3686L6.66909 17.5642L6.73832 17.3989C6.74611 17.3794 6.93564 16.9337 7.28442 16.9344C7.35063 16.9344 7.419 16.9505 7.48823 16.9841C7.76604 17.1159 7.81321 17.5071 7.82056 17.6704C7.82532 17.7652 7.86903 17.7699 7.87768 17.7699C7.90148 17.7699 7.91923 17.7464 7.93177 17.7256C7.98413 17.6409 8.09837 17.4997 8.27709 17.4997C8.35887 17.4997 8.44628 17.53 8.53586 17.5898C8.97767 17.8842 8.77732 18.756 8.77515 18.7655C8.73707 18.91 8.73534 18.9738 8.77126 19.0108L8.78857 19.0236H8.80155C8.82145 19.0236 8.84612 19.0101 8.8868 18.9886C8.94694 18.9564 9.03782 18.908 9.12263 18.908C9.45496 18.914 9.72585 19.3341 9.72585 19.845C9.72542 20.3606 9.45496 20.78 9.12263 20.78ZM13.803 16.5774C13.0734 15.5886 11.3875 13.3119 10.931 12.7788C10.6701 12.4743 10.4922 12.313 10.336 12.2411C10.2659 12.2081 10.1685 12.1705 10.0435 12.1705C9.9275 12.1705 9.80287 12.2028 9.67262 12.2673C9.3775 12.4125 9.08369 12.7755 8.79895 13.1264L8.78424 13.1445C8.51941 13.4719 8.24593 13.81 8.03866 13.8819C7.94822 13.9135 7.85518 13.9296 7.76258 13.9296C7.53021 13.9296 7.32207 13.8255 7.24374 13.6709C7.23076 13.6446 7.23898 13.6036 7.26927 13.5438L7.2736 13.5357L7.91533 12.4616C8.41772 11.6805 8.89242 10.9437 9.98548 10.9048C10.0032 10.9041 10.0218 10.9034 10.04 10.9034C10.7202 10.9041 11.4001 11.3773 11.4762 11.4318C12.1141 11.9151 12.7727 12.1604 13.4343 12.1611C14.1241 12.1618 14.8359 11.8962 15.5841 11.3612C15.5006 11.2523 15.4136 11.1461 15.324 11.0419C14.6667 11.4842 14.0405 11.708 13.4365 11.708C12.819 11.7067 12.2028 11.4768 11.6039 11.0231C11.5723 10.9995 10.8215 10.4497 10.04 10.449C10.0197 10.449 9.9989 10.4497 9.97856 10.4503C9.06075 10.4833 8.54365 10.9901 8.19574 11.4338C7.85778 11.4465 7.56569 11.5729 7.30649 11.6858C7.07455 11.7853 6.87463 11.872 6.67947 11.872C6.59898 11.872 6.45445 11.8606 6.44147 11.8599C6.21732 11.8492 5.08661 11.419 4.18741 10.89C4.09567 10.9908 4.0074 11.095 3.92129 11.2012C4.86073 11.7994 6.00399 12.2619 6.36488 12.2982C6.46527 12.309 6.57216 12.3265 6.67904 12.3265C6.9179 12.3265 7.1559 12.2229 7.38654 12.1228C7.52242 12.063 7.67257 11.9984 7.83095 11.9514C7.78854 12.0159 7.74657 12.0811 7.70416 12.1463L7.05248 13.242C7.00098 13.3227 6.88934 13.5378 6.9629 13.8019C6.99233 13.9088 7.05161 14.011 7.1347 14.0977C7.28961 14.2604 7.56785 14.3699 7.82662 14.3706C7.92442 14.3706 8.01745 14.3552 8.1027 14.3256C8.37575 14.2301 8.66264 13.8752 8.96642 13.5001C9.20831 13.2017 9.55189 12.8225 9.81542 12.711C9.88899 12.68 9.97942 12.6605 10.0517 12.6605C10.0733 12.6612 10.0941 12.6619 10.1131 12.6666C10.2871 12.7002 10.455 12.7923 10.7553 13.1425C11.2906 13.767 13.6589 16.9855 13.6822 17.0177C13.6835 17.0198 13.8346 17.2214 13.8242 17.5582C13.8186 17.7457 13.7515 17.9124 13.6351 18.0281C13.5338 18.1275 13.4295 18.178 13.3244 18.178C13.166 18.178 13.057 18.0623 13.0496 18.0549C13.0409 18.0435 12.2296 16.888 11.931 16.4995C11.8834 16.4383 11.8371 16.3832 11.7904 16.3832C11.7657 16.3832 11.7436 16.3993 11.7285 16.4289C11.6818 16.519 11.7341 16.6433 11.7964 16.7253L12.7441 18.2048C12.7454 18.2069 12.8622 18.3769 12.8748 18.6041C12.8826 18.8495 12.8068 19.0545 12.6498 19.2145C12.5381 19.3288 12.4247 19.3872 12.314 19.3872C12.1686 19.3872 12.066 19.2837 12.0435 19.2595L11.9076 19.0511C11.6593 18.6713 11.4027 18.2788 11.2149 18.0354C11.169 17.9763 11.1201 17.9218 11.0734 17.9218C11.0504 17.9218 11.0296 17.9346 11.0136 17.9608C10.9924 17.9978 10.9773 18.0643 11.0309 18.1746C11.0526 18.2196 11.0785 18.2573 11.0785 18.2573L11.7705 19.4645C11.7761 19.4753 11.9128 19.728 11.786 19.9794L11.7614 20.0272C11.741 20.0628 11.7185 20.0957 11.6973 20.124C11.5792 20.2745 11.4217 20.2907 11.3594 20.2907C11.3261 20.2907 11.2936 20.286 11.2659 20.2779C11.1975 20.2591 11.1517 20.2295 11.1292 20.1885L11.121 20.1751C11.0833 20.1146 10.7345 19.5613 10.4459 19.1876C10.4083 19.1379 10.3607 19.0753 10.3118 19.0753C10.2875 19.0753 10.2659 19.0901 10.249 19.119C10.1919 19.2158 10.2776 19.361 10.3139 19.4148L10.9042 20.4251C10.9033 20.4339 10.8959 20.4547 10.8817 20.487C10.8605 20.532 10.7891 20.6436 10.5749 20.6853C10.5493 20.6906 10.5229 20.6926 10.4965 20.6926C10.2758 20.6926 10.0404 20.5259 9.91928 20.4265C9.97467 20.245 10.0032 20.0453 10.0032 19.8457C10.0032 19.0908 9.60901 18.4771 9.1235 18.4771C9.11311 18.4771 9.10229 18.4771 9.09191 18.4778C9.10749 18.1336 9.07633 17.4816 8.64534 17.1945C8.52114 17.1112 8.39739 17.0688 8.27752 17.0688C8.18319 17.0688 8.09275 17.0937 8.00793 17.1441C7.91836 16.8746 7.77037 16.6783 7.57694 16.5761C7.47006 16.519 7.36361 16.4894 7.26105 16.4894C7.08147 16.4894 6.9166 16.5714 6.76904 16.7341C6.62798 16.4618 6.41464 16.2998 6.19006 16.2998C5.9936 16.2998 5.8045 16.4222 5.66473 16.6379C5.48082 16.4201 4.75255 15.7009 2.80269 15.0132C2.70836 14.9803 2.492 14.8835 2.35915 14.8237C2.33708 14.987 2.32021 15.1531 2.30896 15.3204C2.30896 15.3204 2.66855 15.4542 2.73952 15.4791C4.73135 16.1661 5.38909 16.8806 5.50073 17.0157C5.46265 17.1562 5.44318 17.3075 5.44318 17.4607C5.44274 18.0993 5.77767 18.6203 6.18919 18.6209C6.2355 18.6209 6.28136 18.6142 6.32593 18.6014C6.38825 19.072 6.58643 19.4289 6.88891 19.6118C6.97762 19.6642 7.06719 19.6917 7.15503 19.6917C7.21172 19.6917 7.26927 19.681 7.32509 19.6588C7.38092 19.8793 7.50684 20.1542 7.78811 20.3317C7.88677 20.3935 7.98543 20.4258 8.08106 20.4258C8.15939 20.4258 8.23598 20.4043 8.30911 20.3626C8.44369 20.8728 8.76477 21.2102 9.1222 21.2102C9.35933 21.2109 9.58694 21.061 9.75311 20.7955C9.89504 20.9185 10.1949 21.1403 10.4978 21.141C10.5372 21.141 10.574 21.1363 10.6108 21.1296C10.9119 21.0711 11.0517 20.8876 11.1162 20.7458C11.1279 20.7209 11.1383 20.6947 11.1473 20.6671C11.2183 20.6994 11.2962 20.7249 11.3858 20.7256C11.5502 20.7256 11.7082 20.6382 11.8674 20.4574C12.024 20.2826 12.1353 20.0305 12.1513 19.8161C12.1517 19.8127 12.1521 19.8101 12.1526 19.8067C12.2049 19.8235 12.2594 19.8322 12.3135 19.8322C12.4827 19.8322 12.6489 19.7502 12.8081 19.5882C13.1149 19.2763 13.1682 18.8683 13.1634 18.6008C13.2166 18.6182 13.2716 18.627 13.3261 18.627C13.4849 18.627 13.6411 18.553 13.7896 18.4058C13.98 18.2169 14.0942 17.9279 14.1115 17.5911C14.1236 17.3626 14.0873 17.132 14.0094 16.9337C14.5235 16.5895 15.6983 15.9241 17.0817 15.4394C17.0735 15.2727 17.0579 15.108 17.0389 14.944C15.3651 15.5214 14.1158 16.361 13.803 16.5774Z" fill="#0A0080"/>
<path d="M42.8957 13.9347C42.7611 14.2124 42.5685 14.3508 42.3167 14.3508C42.0653 14.3508 41.8714 14.2124 41.736 13.9347C41.6001 13.6571 41.5326 13.2618 41.5326 12.7501C41.5326 12.2385 41.6001 11.8446 41.736 11.5683C41.8714 11.2927 42.0653 11.1542 42.3167 11.1542C42.5685 11.1542 42.7611 11.2927 42.8957 11.5683C43.0303 11.8446 43.0982 12.2385 43.0982 12.7501C43.0982 13.2618 43.0303 13.6571 42.8957 13.9347ZM43.5837 10.8348C43.3059 10.295 42.8849 10.0247 42.3193 10.0247C41.7546 10.0247 41.3331 10.295 41.0557 10.8348C40.7779 11.3753 40.639 12.0133 40.639 12.7501C40.639 13.4997 40.7779 14.1404 41.0557 14.6735C41.3331 15.2046 41.7546 15.4715 42.3193 15.4715C42.8849 15.4715 43.3059 15.2046 43.5837 14.6735C43.8615 14.1404 44 13.4997 44 12.7501C44 12.0133 43.8615 11.3753 43.5837 10.8348Z" fill="#0A0080"/>
<path d="M36.0527 13.3028C36.0471 13.7512 35.9644 14.0604 35.8056 14.2291C35.6468 14.3986 35.4733 14.4839 35.2851 14.4839C35.1661 14.4839 35.0652 14.4322 34.9822 14.3307C34.8991 14.2285 34.858 14.0631 34.858 13.8339C34.858 13.5777 34.9255 13.3881 35.0613 13.2651C35.1423 13.1938 35.2738 13.132 35.4582 13.0829L35.6546 13.0264C35.7524 12.9975 35.8294 12.9666 35.8857 12.9337C35.9428 12.9014 35.9978 12.8584 36.0527 12.8046V13.3028ZM36.4902 10.3824C36.2085 10.1612 35.8866 10.0489 35.5239 10.0489C34.9666 10.0489 34.5732 10.2748 34.3443 10.7259C34.2002 11.015 34.1197 11.3827 34.1007 11.8311H34.9333C34.954 11.6335 34.9947 11.4768 35.0562 11.3612C35.1423 11.2046 35.2881 11.1259 35.4945 11.1259C35.6788 11.1259 35.8186 11.1649 35.9138 11.2463C36.0086 11.3256 36.0562 11.4708 36.0562 11.6805C36.0562 11.8533 35.9947 11.9797 35.8701 12.0617C35.8009 12.1088 35.6862 12.1478 35.5252 12.1794L35.2301 12.2358C34.8952 12.3011 34.6403 12.4113 34.4681 12.5653C34.1526 12.8476 33.9955 13.3028 33.9955 13.9333C33.9955 14.4187 34.0929 14.7945 34.2889 15.0594C34.4845 15.3243 34.7333 15.4352 35.0337 15.4574C36.9164 15.5878 36.8952 13.9159 36.9125 13.5676V11.6429C36.9125 11.0257 36.7715 10.6056 36.4902 10.3824Z" fill="#0A0080"/>
<path d="M32.1956 11.196C32.411 11.196 32.569 11.2995 32.6711 11.5059C32.7412 11.6585 32.7849 11.8313 32.8018 12.0222H33.7309C33.6798 11.2941 33.5158 10.7859 33.2389 10.4975C32.961 10.2111 32.6058 10.0665 32.1709 10.0665C31.659 10.0665 31.2574 10.3106 30.967 10.798C30.6763 11.286 30.5309 11.9677 30.5309 12.8444C30.5309 13.6202 30.6624 14.2528 30.9255 14.7409C31.1886 15.2276 31.5993 15.4716 32.1575 15.4716C32.7161 15.4716 33.1376 15.1799 33.4219 14.595C33.5997 14.2326 33.6997 13.8481 33.7209 13.442H32.7953C32.7763 13.7103 32.7222 13.9294 32.6326 14.0982C32.5435 14.2662 32.3929 14.351 32.18 14.351C31.8805 14.351 31.6763 14.1392 31.5677 13.713C31.5084 13.4864 31.4785 13.1859 31.4785 12.8114C31.4785 12.4188 31.5084 12.1042 31.5677 11.8669C31.6806 11.4205 31.89 11.196 32.1956 11.196Z" fill="#0A0080"/>
<path d="M30.2825 10.0665C28.3746 10.0665 28.4875 12.6911 28.4875 12.6911V15.3567H29.353V12.8565C29.353 12.4471 29.3863 12.1432 29.4525 11.9462C29.5711 11.5966 29.8034 11.4212 30.1496 11.4212C30.1756 11.4212 30.2098 11.4232 30.2522 11.4265C30.2942 11.4292 30.3422 11.4353 30.3971 11.4454V10.0766C30.3586 10.0726 30.334 10.0712 30.3232 10.0692C30.3119 10.0679 30.2985 10.0665 30.2825 10.0665Z" fill="#0A0080"/>
<path d="M25.9382 11.4595C26.0603 11.2652 26.2312 11.1677 26.4514 11.1677C26.6548 11.1677 26.8244 11.2591 26.9616 11.4434C27.0984 11.6262 27.175 11.8958 27.1905 12.2501H25.7093C25.74 11.9173 25.8166 11.6544 25.9382 11.4595ZM27.1018 13.9637C27.0655 14.0444 27.0265 14.1136 26.9833 14.1674C26.8612 14.3241 26.6951 14.3711 26.4995 14.3711C26.3143 14.3711 26.1697 14.3274 26.0386 14.199C25.8227 13.9933 25.7011 13.6444 25.6881 13.1314H28.0837C28.0871 12.6904 28.0776 12.3529 28.0547 12.1176C28.0149 11.7176 27.9275 11.3647 27.7929 11.0615C27.6436 10.7173 27.4536 10.4652 27.2243 10.3052C26.9954 10.1459 26.7379 10.0665 26.4514 10.0665C25.9689 10.0665 25.5773 10.3025 25.2753 10.7744C24.9733 11.247 24.8218 11.9254 24.8218 12.8101C24.8218 13.7553 24.9893 14.437 25.3242 14.8558C25.6587 15.2747 26.0451 15.4851 26.4826 15.4851C27.0127 15.4851 27.4251 15.2363 27.7198 14.7395C27.8786 14.478 27.9781 14.2192 28.0201 13.9637H27.1018Z" fill="#0A0080"/>
<path d="M24.4755 15.3555H23.6844V12.2616C23.6844 11.9793 23.6247 11.307 23.1029 11.307C22.755 11.307 22.5035 11.6969 22.5035 12.2616V15.3555H21.7121V12.2616C21.7121 11.9793 21.658 11.307 21.1366 11.307C20.7826 11.307 20.5368 11.6969 20.5368 12.2616V15.3555H19.7458V12.2912C19.7458 11.0139 20.291 10.0478 21.1366 10.0478C21.5563 10.0478 21.8977 10.3221 22.1197 10.7611C22.3534 10.3221 22.7009 10.0478 23.1029 10.0478C23.9661 10.0478 24.4755 10.9749 24.4755 12.2912V15.3555Z" fill="#0A0080"/>
<path d="M39.3429 13.9441C39.2165 14.2258 39.0309 14.3663 38.7877 14.3663C38.5441 14.3663 38.3628 14.2245 38.2433 13.9421C38.1239 13.6584 38.0642 13.247 38.0642 12.775C38.0642 12.3374 38.1226 11.971 38.2403 11.6759C38.3576 11.3807 38.5419 11.2328 38.7938 11.2328C38.9586 11.2328 39.1036 11.3135 39.2287 11.4762C39.4316 11.7451 39.5333 12.2271 39.5333 12.8524C39.5333 13.2988 39.4697 13.6631 39.3429 13.9441ZM40.3814 8.44962C40.3814 8.44962 39.5091 8.30508 39.5091 9.39349L39.5086 10.8342C39.4121 10.5935 39.2866 10.4046 39.1317 10.2695C38.9773 10.1337 38.8003 10.0651 38.6003 10.0651C38.1681 10.0651 37.8232 10.3152 37.5644 10.8154C37.3056 11.3155 37.1771 12.0362 37.1771 12.9082C37.1771 13.6645 37.3082 14.2843 37.5705 14.7677C37.8331 15.2497 38.3481 15.4615 38.805 15.4615C40.3992 15.4615 40.3806 13.3371 40.3806 13.3371L40.3814 8.44962Z" fill="#0A0080"/>
<path d="M22.0622 20.2524C22.0622 19.7456 21.9986 19.3556 21.8709 19.082C21.7437 18.8097 21.5615 18.6719 21.3235 18.6719C21.095 18.6719 20.9163 18.8097 20.7887 19.082C20.6705 19.3294 20.6112 19.7207 20.6112 20.2524C20.6112 20.7486 20.6744 21.1177 20.8021 21.3651C20.9289 21.6387 21.1119 21.7752 21.349 21.7752C21.5697 21.7752 21.7437 21.6387 21.8709 21.3651C21.9986 21.0921 22.0622 20.7224 22.0622 20.2524ZM20.6112 23.8922C20.6112 24.0737 20.5688 24.2303 20.4831 24.3601C20.3988 24.4905 20.2971 24.5557 20.1781 24.5557H19.7458V19.8814C19.7458 18.9724 19.9427 18.4037 20.2672 18.0185C20.4819 17.7644 20.8012 17.5217 21.4001 17.5217C21.8043 17.5217 22.2777 17.7657 22.5334 18.2497C22.8203 18.7943 22.9397 19.4013 22.9397 20.194C22.9397 21.0141 22.8125 21.6757 22.5585 22.1846C22.3041 22.6794 21.9769 22.9254 21.5779 22.9254C21.3659 22.9254 21.1794 22.8669 21.0184 22.7506C20.8479 22.6202 20.7129 22.4185 20.6112 22.1449V23.8922Z" fill="#0A0080"/>
<path d="M27.2514 20.2536C27.2514 21.1504 27.4184 21.6472 27.7516 21.7454C28.0843 21.8415 28.3306 21.7212 28.4889 21.3837C28.5642 21.2419 28.6179 21.0167 28.6516 20.7121C28.6845 20.4069 28.6871 20.1044 28.6577 19.8059C28.6291 19.506 28.5599 19.2398 28.4513 19.0059C28.3435 18.7726 28.1847 18.6549 27.9766 18.6549C27.6932 18.6549 27.5019 18.8183 27.4015 19.1417C27.3011 19.4671 27.2514 19.8375 27.2514 20.2536ZM28.6767 22.495V22.1649C28.527 22.5293 28.3241 22.7552 28.0701 22.8466C27.8161 22.9373 27.5638 22.9051 27.3145 22.7484C27.064 22.5931 26.8493 22.3041 26.6702 21.8819C26.4911 21.4583 26.4019 20.903 26.4019 20.214C26.4019 19.4092 26.5205 18.7558 26.7576 18.2556C26.9952 17.7554 27.3768 17.5269 27.9017 17.5047C28.4188 17.4832 28.7196 17.6653 29.0143 18.0116C29.3362 18.3914 29.5266 18.9736 29.5266 19.8832V22.6328C29.5279 23.5074 29.135 25.129 27.9017 24.9918C27.1375 24.9058 26.7135 24.4184 26.4768 23.3152H27.3894C27.456 23.4967 27.5577 23.6358 27.6958 23.7326C27.8325 23.8315 27.971 23.857 28.1073 23.8113C28.2449 23.7656 28.3699 23.6385 28.4833 23.4315C28.5954 23.2237 28.6599 22.9111 28.6767 22.495Z" fill="#0A0080"/>
<path d="M25.2223 20.7964C25.2167 21.2448 25.1341 21.5534 24.9757 21.7228C24.8169 21.8915 24.6433 21.9762 24.4551 21.9762C24.3357 21.9762 24.2349 21.9251 24.1522 21.8236C24.0691 21.7221 24.0276 21.556 24.0276 21.3268C24.0276 21.0707 24.0955 20.8811 24.2314 20.7587C24.3123 20.6868 24.4439 20.6249 24.6278 20.5759L24.8242 20.5194C24.9225 20.4905 24.9995 20.4596 25.0553 20.4266C25.1124 20.3944 25.1674 20.352 25.2223 20.2982V20.7964ZM25.6598 17.876C25.3781 17.6548 25.0562 17.5426 24.694 17.5426C24.1362 17.5426 23.7433 17.7684 23.5139 18.2195C23.3703 18.5079 23.2894 18.8757 23.2707 19.3248H24.1037C24.1241 19.1264 24.1648 18.9698 24.2262 18.8542C24.3123 18.6975 24.4581 18.6195 24.6641 18.6195C24.8493 18.6195 24.9887 18.6585 25.0834 18.7392C25.1782 18.8192 25.2262 18.9644 25.2262 19.1742C25.2262 19.3463 25.1643 19.4733 25.0402 19.5554C24.9714 19.6024 24.8562 19.6414 24.6953 19.673L24.4002 19.7288C24.0652 19.7947 23.8104 19.9049 23.6381 20.0582C23.3227 20.3406 23.1652 20.7964 23.1652 21.4263C23.1652 21.9117 23.263 22.2875 23.459 22.5524C23.6546 22.8166 23.9034 22.9288 24.2037 22.9504C26.0856 23.0808 26.0648 21.4081 26.0822 21.0606V19.1359C26.0822 18.5187 25.9415 18.0992 25.6598 17.876Z" fill="#0A0080"/>
<path d="M32.1125 21.3984C31.9779 21.6767 31.7849 21.8152 31.5335 21.8152C31.2816 21.8152 31.0878 21.6767 30.9528 21.3984C30.8165 21.1214 30.749 20.7268 30.749 20.2152C30.749 19.7036 30.8165 19.3096 30.9528 19.0333C31.0878 18.757 31.2816 18.6199 31.5335 18.6199C31.7849 18.6199 31.9779 18.757 32.1125 19.0333C32.2471 19.3096 32.3146 19.7036 32.3146 20.2152C32.3146 20.7268 32.2471 21.1214 32.1125 21.3984ZM32.8005 18.2999C32.5227 17.7594 32.1012 17.4898 31.5357 17.4898C30.9714 17.4898 30.5495 17.7594 30.2721 18.2999C29.9943 18.8397 29.8554 19.4777 29.8554 20.2152C29.8554 20.9648 29.9943 21.6048 30.2721 22.1379C30.5495 22.669 30.9714 22.9359 31.5357 22.9359C32.1012 22.9359 32.5227 22.669 32.8005 22.1379C33.0779 21.6048 33.2159 20.9648 33.2159 20.2152C33.2159 19.4777 33.0779 18.8397 32.8005 18.2999Z" fill="#0A0080"/>
</svg>
