<svg width="84" height="58" viewBox="0 0 84 58" fill="none" xmlns="http://www.w3.org/2000/svg">
<path d="M31.7221 28.0644C31.7221 23.0709 25.5168 19 17.8615 19C10.2069 19 4.00156 23.0709 4.00156 28.0644C4.00156 28.1939 4 28.5503 4 28.5955C4 33.8932 9.42385 38.184 17.8599 38.184C26.3482 38.184 31.7221 33.8947 31.7221 28.5963C31.7221 28.4115 31.7221 28.3046 31.7221 28.0644Z" fill="#0A0080"/>
<path d="M31.1922 28.0608C31.1922 32.7689 25.2255 36.5856 17.865 36.5856C10.5045 36.5856 4.5378 32.7689 4.5378 28.0608C4.5378 23.352 10.5045 19.5353 17.865 19.5353C25.2255 19.5353 31.1922 23.352 31.1922 28.0608Z" fill="#00BCFF"/>
<path d="M13.4384 25.3709C13.4314 25.3842 13.2988 25.5223 13.3846 25.6322C13.5952 25.9013 14.2449 26.055 14.9016 25.9076C15.2924 25.8202 15.7939 25.4216 16.2798 25.0356C16.8055 24.6175 17.3281 24.1994 17.853 24.0325C18.4083 23.8555 18.7647 23.9319 19.0003 24.0029C19.2585 24.0793 19.5619 24.2494 20.0462 24.6128C20.958 25.2984 24.6246 28.4994 25.2579 29.0524C25.7688 28.8215 28.0361 27.8458 31.1178 27.1664C30.8502 25.5238 29.8503 24.02 28.3349 22.7893C26.2227 23.6769 23.6411 24.1402 21.1171 22.907C21.1038 22.9016 19.7374 22.255 18.3904 22.287C16.3866 22.333 15.5193 23.2003 14.6013 24.1175L13.4384 25.3709Z" fill="white"/>
<path d="M25.1096 29.4012C25.0667 29.3629 20.798 25.6277 19.8317 24.9016C19.2716 24.482 18.9604 24.3743 18.6336 24.333C18.4636 24.3104 18.2281 24.3423 18.0643 24.3876C17.6142 24.51 17.0261 24.9031 16.5036 25.3173C15.963 25.7478 15.453 26.1534 14.9803 26.2595C14.3758 26.3952 13.638 26.2345 13.301 26.0076C13.1645 25.9155 13.0686 25.8094 13.0226 25.7018C12.8978 25.4132 13.1271 25.1824 13.1653 25.1441L14.3431 23.8697C14.4803 23.7332 14.6176 23.5967 14.7588 23.4618C14.3789 23.5117 14.0272 23.6084 13.6856 23.7036C13.2589 23.8237 12.8487 23.9375 12.4329 23.9375C12.2598 23.9375 11.3309 23.7855 11.1546 23.7371C10.0884 23.4454 9.15243 23.1615 7.75552 22.5087C6.08095 23.7558 4.96093 25.3142 4.63724 27.0309C4.87825 27.0948 5.26589 27.2103 5.4289 27.2461C9.21795 28.0885 10.398 28.9566 10.6125 29.1383C10.8442 28.8802 11.1788 28.7171 11.5524 28.7171C11.9712 28.7179 12.3495 28.9277 12.5788 29.2538C12.7956 29.0822 13.0951 28.9363 13.482 28.9363C13.6575 28.9363 13.84 28.9691 14.0241 29.0315C14.4515 29.1781 14.6722 29.4628 14.7869 29.7202C14.9304 29.6554 15.1067 29.6079 15.3141 29.6086C15.5185 29.6086 15.7306 29.6547 15.9443 29.7475C16.6432 30.047 16.7516 30.7333 16.6884 31.2505C16.7383 31.245 16.7882 31.2427 16.8389 31.2427C17.6673 31.2434 18.3411 31.9165 18.3411 32.7456C18.3411 33.0022 18.2756 33.2432 18.161 33.4546C18.3864 33.5818 18.9612 33.868 19.4658 33.804C19.8691 33.7533 20.022 33.6153 20.0766 33.5381C20.114 33.485 20.1538 33.4226 20.1171 33.3782L19.0478 32.1903C19.0478 32.1903 18.8715 32.0234 18.93 31.9594C18.9901 31.8931 19.0993 31.9883 19.1757 32.0522C19.7201 32.507 20.3846 33.1926 20.3846 33.1926C20.3956 33.2004 20.44 33.2869 20.6857 33.3314C20.8971 33.3688 21.2715 33.347 21.5304 33.1341C21.5959 33.0802 21.6614 33.0132 21.716 32.9437C21.7121 32.9469 21.7082 32.9523 21.7043 32.9539C21.9773 32.6037 21.6739 32.2496 21.6739 32.2496L20.4252 30.848C20.4252 30.848 20.2474 30.6826 20.3074 30.6163C20.362 30.5586 20.4767 30.646 20.5555 30.7107C20.9501 31.0414 21.5086 31.6014 22.0444 32.1256C22.1481 32.2028 22.6192 32.4937 23.2416 32.0842C23.6199 31.8362 23.6956 31.532 23.6847 31.3019C23.6589 30.9977 23.421 30.7809 23.421 30.7809L21.716 29.0666C21.716 29.0666 21.5359 28.9129 21.5998 28.8349C21.6521 28.7694 21.7691 28.8638 21.8455 28.9277C22.3884 29.3824 23.8594 30.731 23.8594 30.731C23.8804 30.7458 24.3882 31.1077 25.016 30.7076C25.2407 30.5641 25.3842 30.348 25.3967 30.0961C25.4177 29.6601 25.1096 29.4012 25.1096 29.4012Z" fill="white"/>
<path d="M16.8411 31.5743C16.5767 31.5712 16.2874 31.7279 16.2499 31.7053C16.2289 31.6913 16.2655 31.5852 16.2905 31.5236C16.3162 31.4628 16.6641 30.4153 15.8155 30.051C15.1658 29.7726 14.7688 30.0861 14.6323 30.2281C14.5964 30.2655 14.5808 30.2624 14.5761 30.2148C14.5637 30.0261 14.4786 29.516 13.9186 29.3444C13.1176 29.0995 12.6021 29.6587 12.471 29.8607C12.4125 29.4037 12.0272 29.0496 11.5538 29.0488C11.0398 29.0488 10.6233 29.4645 10.6233 29.9785C10.6225 30.4917 11.039 30.9082 11.553 30.9082C11.8026 30.909 12.0288 30.8091 12.1957 30.6493C12.2012 30.6539 12.2035 30.6625 12.2004 30.6805C12.1614 30.9098 12.0896 31.7459 12.9647 32.0867C13.3157 32.2224 13.6144 32.121 13.8617 31.9479C13.935 31.8956 13.9475 31.9175 13.9366 31.9869C13.9054 32.2022 13.9451 32.6623 14.591 32.9236C15.0816 33.1233 15.3725 32.9189 15.5628 32.7435C15.6455 32.6678 15.6681 32.6795 15.672 32.7965C15.6954 33.4189 16.2125 33.9126 16.8396 33.9134C17.4862 33.9134 18.0103 33.3908 18.0103 32.745C18.0111 32.0984 17.4877 31.5813 16.8411 31.5743Z" fill="white"/>
<path d="M16.8381 33.8271C16.2524 33.8263 15.7758 33.3709 15.754 32.7914C15.7532 32.7415 15.7478 32.6089 15.6362 32.6089C15.5894 32.6089 15.5496 32.637 15.5036 32.6783C15.3749 32.7977 15.2111 32.9193 14.9717 32.9193C14.8625 32.9193 14.7447 32.8936 14.6207 32.8429C14.0014 32.5926 13.9928 32.1675 14.0178 31.9967C14.0248 31.9507 14.0272 31.9032 13.996 31.8665L13.9577 31.833H13.9195C13.8883 31.833 13.8556 31.8454 13.8119 31.8766C13.6325 32.0022 13.4609 32.063 13.2862 32.063C13.1903 32.063 13.092 32.0435 12.9929 32.0053C12.1787 31.6887 12.2434 30.9197 12.2832 30.6889C12.2886 30.6413 12.2769 30.6055 12.2473 30.5813L12.1896 30.5337L12.1358 30.5852C11.9774 30.738 11.7692 30.8223 11.5516 30.8223C11.0844 30.8215 10.7045 30.4425 10.7053 29.9761C10.7053 29.509 11.0859 29.1307 11.5523 29.1307C11.9743 29.1307 12.3331 29.4481 12.3869 29.8693L12.4158 30.0962L12.5406 29.9044C12.5546 29.8817 12.8962 29.3647 13.5249 29.3655C13.6442 29.3655 13.7674 29.3842 13.8922 29.4232C14.393 29.576 14.478 30.0299 14.4912 30.2194C14.4998 30.3294 14.5786 30.3348 14.5942 30.3348C14.6371 30.3348 14.6691 30.3075 14.6917 30.2834C14.7861 30.1851 14.992 30.0213 15.3141 30.0213C15.4615 30.0213 15.6191 30.0564 15.7805 30.1258C16.5768 30.4674 16.2157 31.4789 16.2118 31.4898C16.1432 31.6575 16.1401 31.7316 16.2048 31.7745L16.236 31.7893H16.2594C16.2953 31.7893 16.3397 31.7737 16.4131 31.7487C16.5215 31.7113 16.6853 31.6552 16.8381 31.6552H16.8389C17.4379 31.6622 17.9254 32.1496 17.9254 32.7423C17.9246 33.3405 17.4371 33.8271 16.8381 33.8271ZM25.2742 28.9513C23.9592 27.8042 20.9204 25.1627 20.0976 24.5443C19.6273 24.191 19.3067 24.0039 19.0251 23.9204C18.8988 23.8822 18.7233 23.8385 18.4979 23.8385C18.2889 23.8385 18.0642 23.876 17.8295 23.9508C17.2975 24.1193 16.7679 24.5404 16.2547 24.9475L16.2282 24.9686C15.7509 25.3483 15.2579 25.7406 14.8843 25.8241C14.7213 25.8607 14.5536 25.8794 14.3867 25.8794C13.9679 25.8794 13.5927 25.7586 13.4515 25.5792C13.4281 25.5488 13.443 25.5012 13.4976 25.4318L13.5054 25.4224L14.662 24.1762C15.5676 23.27 16.4232 22.4153 18.3934 22.37C18.4254 22.3692 18.4589 22.3685 18.4917 22.3685C19.7177 22.3692 20.9431 22.9183 21.0803 22.9814C22.23 23.5422 23.4171 23.8268 24.6097 23.8276C25.8529 23.8284 27.136 23.5203 28.4845 22.8996C28.334 22.7732 28.1772 22.65 28.0157 22.5291C26.831 23.0423 25.7024 23.302 24.6136 23.302C23.5006 23.3004 22.3899 23.0337 21.3104 22.5073C21.2535 22.48 19.9003 21.8421 18.4917 21.8413C18.455 21.8413 18.4176 21.8421 18.3809 21.8428C16.7266 21.881 15.7945 22.4691 15.1675 22.9838C14.5583 22.9986 14.0318 23.1452 13.5646 23.2762C13.1466 23.3917 12.7862 23.4923 12.4345 23.4923C12.2894 23.4923 12.0289 23.479 12.0055 23.4782C11.6015 23.4657 9.56344 22.9666 7.94268 22.3529C7.77733 22.4698 7.61822 22.5907 7.46301 22.7139C9.1563 23.408 11.217 23.9446 11.8674 23.9867C12.0484 23.9992 12.241 24.0195 12.4337 24.0195C12.8642 24.0195 13.2932 23.8994 13.7089 23.7832C13.9538 23.7137 14.2245 23.6389 14.51 23.5843C14.4335 23.6592 14.3579 23.7348 14.2814 23.8104L13.1068 25.0816C13.014 25.1752 12.8128 25.4248 12.9454 25.7313C12.9984 25.8553 13.1052 25.9738 13.255 26.0744C13.5342 26.2631 14.0357 26.3903 14.5022 26.391C14.6784 26.391 14.8461 26.3731 14.9998 26.3388C15.4919 26.228 16.009 25.8163 16.5566 25.3811C16.9926 25.0348 17.6119 24.595 18.0869 24.4655C18.2194 24.4297 18.3825 24.407 18.5127 24.407C18.5517 24.4078 18.5891 24.4086 18.6235 24.4141C18.937 24.4531 19.2396 24.5599 19.7809 24.9662C20.7457 25.6907 25.0145 29.4247 25.0566 29.4622C25.0589 29.4645 25.3311 29.6985 25.3124 30.0892C25.3023 30.3068 25.1814 30.5002 24.9716 30.6343C24.7891 30.7497 24.6011 30.8082 24.4116 30.8082C24.1261 30.8082 23.9295 30.6741 23.9163 30.6655C23.9007 30.6522 22.4383 29.3116 21.9001 28.8609C21.8143 28.7899 21.7308 28.726 21.6466 28.726C21.6021 28.726 21.5624 28.7447 21.5351 28.779C21.4508 28.8835 21.5452 29.0278 21.6575 29.1229L23.3656 30.8394C23.368 30.8418 23.5786 31.0391 23.6012 31.3027C23.6152 31.5873 23.4787 31.8252 23.1956 32.0108C22.9944 32.1434 22.79 32.2112 22.5903 32.2112C22.3283 32.2112 22.1434 32.0911 22.1029 32.063L21.858 31.8213C21.4103 31.3806 20.9477 30.9252 20.6092 30.6429C20.5266 30.5743 20.4384 30.5111 20.3542 30.5111C20.3129 30.5111 20.2754 30.5259 20.2466 30.5563C20.2083 30.5992 20.181 30.6764 20.2778 30.8043C20.3168 30.8566 20.3636 30.9002 20.3636 30.9002L21.6107 32.3009C21.6209 32.3134 21.8673 32.6066 21.6388 32.8983L21.5943 32.9536C21.5577 32.995 21.5171 33.0332 21.4789 33.0659C21.266 33.2406 20.9821 33.2594 20.8698 33.2594C20.8097 33.2594 20.7512 33.2539 20.7013 33.2445C20.578 33.2227 20.4954 33.1884 20.4548 33.1408L20.44 33.1252C20.3721 33.055 19.7435 32.4132 19.2233 31.9796C19.1554 31.9219 19.0696 31.8493 18.9815 31.8493C18.9378 31.8493 18.8988 31.8665 18.8684 31.9C18.7654 32.0123 18.9198 32.1808 18.9854 32.2432L20.0492 33.4153C20.0477 33.4255 20.0344 33.4496 20.0087 33.4871C19.9705 33.5393 19.8418 33.6688 19.4557 33.7171C19.4097 33.7234 19.3621 33.7257 19.3145 33.7257C18.9167 33.7257 18.4924 33.5323 18.274 33.4169C18.3739 33.2063 18.4254 32.9747 18.4254 32.7431C18.4254 31.8673 17.7148 31.1553 16.8397 31.1553C16.821 31.1553 16.8015 31.1553 16.7828 31.156C16.8108 30.7567 16.7547 30.0003 15.9778 29.6673C15.754 29.5706 15.5309 29.5214 15.3149 29.5214C15.1448 29.5214 14.9818 29.5503 14.829 29.6088C14.6675 29.2961 14.4008 29.0683 14.0521 28.9498C13.8595 28.8835 13.6676 28.8492 13.4827 28.8492C13.1591 28.8492 12.8619 28.9443 12.5959 29.1331C12.3417 28.8172 11.9571 28.6293 11.5523 28.6293C11.1982 28.6293 10.8574 28.7712 10.6055 29.0215C10.274 28.7689 8.96131 27.9344 5.44681 27.1366C5.27678 27.0984 4.8868 26.9861 4.64735 26.9167C4.60757 27.1062 4.57716 27.2988 4.55688 27.493C4.55688 27.493 5.20502 27.6482 5.33294 27.677C8.92309 28.4741 10.1086 29.3031 10.3099 29.4598C10.2412 29.6228 10.2061 29.7983 10.2061 29.9761C10.2054 30.717 10.809 31.3214 11.5508 31.3222C11.6342 31.3222 11.7169 31.3144 11.7972 31.2995C11.9096 31.8454 12.2668 32.2596 12.812 32.4717C12.9719 32.5325 13.1333 32.5645 13.2917 32.5645C13.3938 32.5645 13.4976 32.552 13.5982 32.5263C13.6988 32.7821 13.9258 33.101 14.4327 33.3069C14.6106 33.3787 14.7884 33.4161 14.9608 33.4161C15.1019 33.4161 15.24 33.3912 15.3718 33.3428C15.6144 33.9347 16.1931 34.3262 16.8374 34.3262C17.2648 34.327 17.675 34.1531 17.9745 33.845C18.2304 33.9878 18.7709 34.2451 19.3168 34.2459C19.3878 34.2459 19.4541 34.2404 19.5204 34.2326C20.0633 34.1648 20.3152 33.9519 20.4314 33.7873C20.4525 33.7585 20.4712 33.7281 20.4876 33.6961C20.6155 33.7335 20.7559 33.7631 20.9173 33.7639C21.2137 33.7639 21.4984 33.6625 21.7854 33.4528C22.0678 33.25 22.2682 32.9575 22.2971 32.7088C22.2979 32.7049 22.2986 32.7017 22.2994 32.6978C22.3938 32.7173 22.4921 32.7275 22.5896 32.7275C22.8945 32.7275 23.194 32.6323 23.4811 32.4444C24.034 32.0825 24.13 31.6091 24.1214 31.2988C24.2173 31.319 24.3164 31.3292 24.4147 31.3292C24.7009 31.3292 24.9825 31.2434 25.25 31.0726C25.5932 30.8535 25.7991 30.5181 25.8303 30.1274C25.8521 29.8622 25.7866 29.5947 25.6462 29.3647C26.5728 28.9654 28.6904 28.1933 31.1839 27.631C31.1691 27.4376 31.141 27.2466 31.1067 27.0563C28.0898 27.7262 25.8381 28.7002 25.2742 28.9513Z" fill="#0A0080"/>
<path d="M77.7121 25.8853C77.4696 26.2074 77.1225 26.3681 76.6685 26.3681C76.2154 26.3681 75.866 26.2074 75.6218 25.8853C75.3769 25.5632 75.2553 25.1046 75.2553 24.511C75.2553 23.9175 75.3769 23.4604 75.6218 23.1398C75.866 22.8201 76.2154 22.6594 76.6685 22.6594C77.1225 22.6594 77.4696 22.8201 77.7121 23.1398C77.9547 23.4604 78.0771 23.9175 78.0771 24.511C78.0771 25.1046 77.9547 25.5632 77.7121 25.8853ZM78.9523 22.2889C78.4515 21.6626 77.6926 21.3491 76.6732 21.3491C75.6554 21.3491 74.8957 21.6626 74.3957 22.2889C73.895 22.916 73.6446 23.6562 73.6446 24.511C73.6446 25.3807 73.895 26.124 74.3957 26.7425C74.8957 27.3586 75.6554 27.6683 76.6732 27.6683C77.6926 27.6683 78.4515 27.3586 78.9523 26.7425C79.453 26.124 79.7026 25.3807 79.7026 24.511C79.7026 23.6562 79.453 22.916 78.9523 22.2889Z" fill="#0A0080"/>
<path d="M65.3781 25.1521C65.3679 25.6724 65.219 26.0311 64.9327 26.2269C64.6465 26.4235 64.3337 26.5225 63.9944 26.5225C63.7799 26.5225 63.5982 26.4625 63.4485 26.3447C63.2987 26.2261 63.2246 26.0343 63.2246 25.7683C63.2246 25.4711 63.3463 25.2512 63.5912 25.1085C63.737 25.0258 63.9741 24.954 64.3064 24.8971L64.6605 24.8316C64.8368 24.798 64.9756 24.7621 65.077 24.7239C65.18 24.6865 65.279 24.6366 65.3781 24.5742V25.1521ZM66.1666 21.764C65.6589 21.5074 65.0786 21.3771 64.425 21.3771C63.4204 21.3771 62.7114 21.6392 62.2988 22.1625C62.0391 22.4979 61.894 22.9246 61.8597 23.4448H63.3603C63.3978 23.2155 63.4711 23.0338 63.5818 22.8996C63.737 22.7179 63.9999 22.6266 64.3719 22.6266C64.7042 22.6266 64.9561 22.6719 65.1277 22.7662C65.2985 22.8583 65.3843 23.0267 65.3843 23.2701C65.3843 23.4705 65.2736 23.6172 65.0489 23.7123C64.9241 23.7669 64.7174 23.8122 64.4273 23.8488L63.8954 23.9143C63.2917 23.99 62.8323 24.1179 62.5219 24.2965C61.9533 24.6241 61.6701 25.1521 61.6701 25.8837C61.6701 26.4469 61.8456 26.8829 62.199 27.1902C62.5515 27.4975 63 27.6262 63.5413 27.6519C66.9349 27.8032 66.8967 25.8635 66.9279 25.4594V23.2264C66.9279 22.5104 66.6736 22.0229 66.1666 21.764Z" fill="#0A0080"/>
<path d="M58.4258 22.7079C58.8142 22.7079 59.0989 22.828 59.2829 23.0674C59.4093 23.2445 59.4881 23.4449 59.5185 23.6664H61.1931C61.101 22.8217 60.8054 22.2321 60.3062 21.8975C59.8055 21.5652 59.1652 21.3975 58.3813 21.3975C57.4586 21.3975 56.7348 21.6807 56.2114 22.2461C55.6873 22.8124 55.4252 23.6033 55.4252 24.6203C55.4252 25.5204 55.6623 26.2544 56.1366 26.8206C56.6108 27.3853 57.351 27.6684 58.3571 27.6684C59.364 27.6684 60.1237 27.3299 60.6362 26.6514C60.9567 26.231 61.1369 25.7848 61.1751 25.3137H59.5068C59.4725 25.6249 59.375 25.8792 59.2135 26.075C59.0528 26.27 58.7814 26.3682 58.3977 26.3682C57.8579 26.3682 57.4898 26.1225 57.294 25.628C57.1872 25.3652 57.1334 25.0166 57.1334 24.5821C57.1334 24.1266 57.1872 23.7616 57.294 23.4863C57.4976 22.9684 57.8751 22.7079 58.4258 22.7079Z" fill="#0A0080"/>
<path d="M54.9775 21.3975C51.5387 21.3975 51.7423 24.4425 51.7423 24.4425V27.535H53.3022V24.6344C53.3022 24.1594 53.3622 23.8068 53.4816 23.5783C53.6953 23.1727 54.1141 22.9692 54.7381 22.9692C54.7849 22.9692 54.8465 22.9715 54.9229 22.9754C54.9986 22.9785 55.0852 22.9855 55.1842 22.9972V21.4092C55.1148 21.4046 55.0704 21.403 55.0509 21.4007C55.0306 21.3991 55.0064 21.3975 54.9775 21.3975Z" fill="#0A0080"/>
<path d="M47.1473 23.0136C47.3672 22.7882 47.6753 22.6751 48.0723 22.6751C48.4389 22.6751 48.7446 22.7812 48.9919 22.9949C49.2384 23.207 49.3764 23.5198 49.4045 23.9309H46.7347C46.7901 23.5448 46.9281 23.2398 47.1473 23.0136ZM49.2446 25.919C49.1791 26.0126 49.1089 26.0929 49.0309 26.1553C48.8109 26.337 48.5114 26.3916 48.1589 26.3916C47.8251 26.3916 47.5646 26.3409 47.3282 26.192C46.939 25.9533 46.7199 25.5485 46.6965 24.9534H51.0143C51.0206 24.4417 51.0034 24.0502 50.9621 23.7772C50.8903 23.3131 50.7328 22.9036 50.4902 22.5519C50.2211 22.1525 49.8787 21.8601 49.4653 21.6744C49.0527 21.4896 48.5886 21.3975 48.0723 21.3975C47.2027 21.3975 46.4968 21.6713 45.9524 22.2188C45.408 22.7672 45.135 23.5541 45.135 24.5806C45.135 25.6772 45.4368 26.4681 46.0405 26.954C46.6434 27.4399 47.3399 27.684 48.1285 27.684C49.0839 27.684 49.8272 27.3954 50.3584 26.819C50.6446 26.5156 50.824 26.2154 50.8997 25.919H49.2446Z" fill="#0A0080"/>
<path d="M44.5107 27.5336H43.085V23.9443C43.085 23.6167 42.9773 22.8367 42.0367 22.8367C41.4096 22.8367 40.9565 23.2891 40.9565 23.9443V27.5336H39.5299V23.9443C39.5299 23.6167 39.4324 22.8367 38.4926 22.8367C37.8545 22.8367 37.4115 23.2891 37.4115 23.9443V27.5336H35.9858V23.9786C35.9858 22.4967 36.9685 21.3758 38.4926 21.3758C39.2491 21.3758 39.8645 21.6941 40.2646 22.2034C40.6858 21.6941 41.3121 21.3758 42.0367 21.3758C43.5927 21.3758 44.5107 22.4514 44.5107 23.9786V27.5336Z" fill="#0A0080"/>
<path d="M71.3084 25.8962C71.0807 26.2231 70.7461 26.3861 70.3078 26.3861C69.8686 26.3861 69.5418 26.2215 69.3266 25.8939C69.1113 25.5648 69.0037 25.0874 69.0037 24.5399C69.0037 24.0321 69.1089 23.6071 69.3211 23.2647C69.5325 22.9223 69.8647 22.7507 70.3187 22.7507C70.6158 22.7507 70.8771 22.8443 71.1025 23.033C71.4683 23.345 71.6516 23.9042 71.6516 24.6296C71.6516 25.1475 71.537 25.5702 71.3084 25.8962ZM73.1803 19.5216C73.1803 19.5216 71.6079 19.3539 71.6079 20.6167L71.6072 22.2882C71.4332 22.0089 71.207 21.7898 70.9278 21.633C70.6494 21.4754 70.3304 21.3959 69.97 21.3959C69.1908 21.3959 68.5692 21.686 68.1028 22.2663C67.6364 22.8466 67.4047 23.6827 67.4047 24.6943C67.4047 25.5718 67.6411 26.2909 68.1137 26.8517C68.5872 27.4109 69.5153 27.6566 70.339 27.6566C73.2123 27.6566 73.1788 25.1919 73.1788 25.1919L73.1803 19.5216Z" fill="#0A0080"/>
<path d="M40.1609 33.215C40.1609 32.6269 40.0462 32.1745 39.8162 31.8571C39.5868 31.5412 39.2585 31.3813 38.8295 31.3813C38.4177 31.3813 38.0956 31.5412 37.8655 31.8571C37.6525 32.1441 37.5457 32.5981 37.5457 33.215C37.5457 33.7906 37.6596 34.2188 37.8896 34.5058C38.1182 34.8233 38.4481 34.9816 38.8755 34.9816C39.2733 34.9816 39.5868 34.8233 39.8162 34.5058C40.0462 34.1892 40.1609 33.7602 40.1609 33.215ZM37.5457 37.4377C37.5457 37.6483 37.4692 37.83 37.3148 37.9806C37.1627 38.1319 36.9794 38.2075 36.7649 38.2075H35.9858V32.7845C35.9858 31.73 36.3406 31.0701 36.9256 30.6232C37.3125 30.3284 37.8881 30.0468 38.9676 30.0468C39.696 30.0468 40.5493 30.3299 41.0103 30.8915C41.5274 31.5233 41.7427 32.2276 41.7427 33.1471C41.7427 34.0987 41.5133 34.8662 41.0555 35.4566C40.5969 36.0307 40.0072 36.3161 39.2881 36.3161C38.9059 36.3161 38.5698 36.2483 38.2796 36.1133C37.9723 35.962 37.729 35.728 37.5457 35.4106V37.4377Z" fill="#0A0080"/>
<path d="M49.5141 33.2164C49.5141 34.2568 49.8152 34.8332 50.4157 34.9471C51.0155 35.0586 51.4593 34.919 51.7448 34.5275C51.8805 34.3629 51.9772 34.1016 52.0381 33.7483C52.0973 33.3942 52.102 33.0432 52.049 32.6969C51.9975 32.349 51.8727 32.0402 51.6769 31.7688C51.4827 31.4981 51.1965 31.3616 50.8213 31.3616C50.3105 31.3616 49.9657 31.5511 49.7848 31.9263C49.6038 32.3038 49.5141 32.7336 49.5141 33.2164ZM52.0833 35.8167V35.4338C51.8134 35.8565 51.4476 36.1186 50.9898 36.2247C50.532 36.33 50.0772 36.2925 49.628 36.1108C49.1764 35.9306 48.7895 35.5952 48.4666 35.1054C48.1437 34.614 47.983 33.9698 47.983 33.1703C47.983 32.2367 48.1968 31.4786 48.6242 30.8983C49.0524 30.318 49.7403 30.0528 50.6864 30.0271C51.6184 30.0021 52.1605 30.2135 52.6917 30.6152C53.272 31.0559 53.6151 31.7313 53.6151 32.7866V35.9766C53.6175 36.9914 52.9093 38.8726 50.6864 38.7135C49.309 38.6137 48.5446 38.0482 48.118 36.7683H49.7629C49.883 36.9789 50.0663 37.1403 50.3151 37.2527C50.5616 37.3673 50.8112 37.3969 51.0569 37.3439C51.3049 37.2909 51.5303 37.1435 51.7347 36.9032C51.9367 36.6622 52.0529 36.2995 52.0833 35.8167Z" fill="#0A0080"/>
<path d="M45.8569 33.8461C45.8468 34.3663 45.6978 34.7243 45.4123 34.9208C45.1261 35.1166 44.8133 35.2149 44.4741 35.2149C44.2588 35.2149 44.0771 35.1556 43.9281 35.0378C43.7783 34.9201 43.7034 34.7274 43.7034 34.4614C43.7034 34.1643 43.8259 33.9443 44.0708 33.8024C44.2167 33.7189 44.4538 33.6472 44.7853 33.5902L45.1394 33.5247C45.3164 33.4912 45.4552 33.4553 45.5559 33.4171C45.6588 33.3796 45.7579 33.3305 45.8569 33.2681V33.8461ZM46.6455 30.4579C46.1377 30.2013 45.5574 30.071 44.9046 30.071C43.8992 30.071 43.191 30.3331 42.7776 30.8565C42.5187 31.1911 42.3728 31.6177 42.3393 32.1387H43.8407C43.8774 31.9086 43.9507 31.7269 44.0615 31.5927C44.2167 31.411 44.4795 31.3205 44.8508 31.3205C45.1846 31.3205 45.4357 31.3658 45.6066 31.4594C45.7774 31.5522 45.8639 31.7207 45.8639 31.964C45.8639 32.1637 45.7524 32.3111 45.5286 32.4062C45.4045 32.4608 45.1971 32.5061 44.9069 32.5427L44.375 32.6075C43.7713 32.6839 43.3119 32.8118 43.0015 32.9897C42.4329 33.3172 42.149 33.8461 42.149 34.5769C42.149 35.14 42.3253 35.576 42.6786 35.8833C43.0311 36.1898 43.4796 36.3201 44.0209 36.345C47.4129 36.4964 47.3755 34.5558 47.4067 34.1526V31.9196C47.4067 31.2035 47.1532 30.7169 46.6455 30.4579Z" fill="#0A0080"/>
<path d="M58.276 34.5445C58.0334 34.8674 57.6856 35.0281 57.2324 35.0281C56.7785 35.0281 56.4291 34.8674 56.1857 34.5445C55.94 34.2232 55.8184 33.7653 55.8184 33.1718C55.8184 32.5782 55.94 32.1212 56.1857 31.8006C56.4291 31.48 56.7785 31.3209 57.2324 31.3209C57.6856 31.3209 58.0334 31.48 58.276 31.8006C58.5186 32.1212 58.6403 32.5782 58.6403 33.1718C58.6403 33.7653 58.5186 34.2232 58.276 34.5445ZM59.5162 30.9497C59.0154 30.3226 58.2557 30.0098 57.2363 30.0098C56.2193 30.0098 55.4588 30.3226 54.9588 30.9497C54.4581 31.576 54.2077 32.3162 54.2077 33.1718C54.2077 34.0414 54.4581 34.784 54.9588 35.4025C55.4588 36.0186 56.2193 36.3283 57.2363 36.3283C58.2557 36.3283 59.0154 36.0186 59.5162 35.4025C60.0161 34.784 60.2649 34.0414 60.2649 33.1718C60.2649 32.3162 60.0161 31.576 59.5162 30.9497Z" fill="#0A0080"/>
</svg>
