<svg width="48" height="34" viewBox="0 0 48 34" fill="none" xmlns="http://www.w3.org/2000/svg">
<path fill-rule="evenodd" clip-rule="evenodd" d="M21.8803 17.2177L22.0893 15.8505L21.6237 15.8394H19.4009L20.9457 5.75027C20.9505 5.71972 20.9661 5.69136 20.9888 5.67118C21.0116 5.65101 21.0407 5.63994 21.0712 5.63994H24.8193C26.0637 5.63994 26.9224 5.9066 27.3706 6.433C27.5808 6.67994 27.7147 6.93807 27.7795 7.22202C27.8474 7.52004 27.8486 7.87604 27.7823 8.31033L27.7775 8.34191V8.62022L27.9877 8.74288C28.1646 8.83961 28.3053 8.95028 28.4132 9.07698C28.593 9.28819 28.7093 9.55658 28.7584 9.87465C28.8092 10.2018 28.7924 10.5913 28.7093 11.0321C28.6134 11.5392 28.4583 11.9808 28.2489 12.3421C28.0564 12.6751 27.8111 12.9513 27.5197 13.1653C27.2416 13.3686 26.9112 13.523 26.5376 13.6218C26.1755 13.7189 25.7627 13.7679 25.3099 13.7679H25.0183C24.8097 13.7679 24.6072 13.8452 24.4481 13.9839C24.2886 14.1255 24.1832 14.319 24.1508 14.5305L24.1288 14.6536L23.7595 17.0635L23.7429 17.1519C23.7384 17.1799 23.7308 17.1939 23.7196 17.2033C23.7096 17.212 23.6953 17.2177 23.6813 17.2177H21.8803" fill="#28356A"/>
<path fill-rule="evenodd" clip-rule="evenodd" d="M28.1868 8.37408C28.1757 8.44775 28.1629 8.52303 28.1485 8.60039C27.6543 11.2144 25.9632 12.1174 23.8034 12.1174H22.7037C22.4396 12.1174 22.217 12.3149 22.1759 12.5833L21.4534 17.3037C21.4267 17.48 21.5585 17.6388 21.7311 17.6388H23.6815C23.9124 17.6388 24.1087 17.4659 24.145 17.2313L24.1642 17.1293L24.5314 14.7289L24.555 14.5973C24.5909 14.3618 24.7876 14.1889 25.0185 14.1889H25.3102C27.1999 14.1889 28.6792 13.3987 29.1116 11.1119C29.2921 10.1566 29.1986 9.35898 28.7207 8.79799C28.5761 8.62887 28.3967 8.48845 28.1868 8.37408" fill="#298FC2"/>
<path fill-rule="evenodd" clip-rule="evenodd" d="M27.6698 8.16172C27.5942 8.13901 27.5163 8.11849 27.4364 8.09992C27.356 8.08182 27.2738 8.0658 27.189 8.05173C26.8926 8.00239 26.5676 7.97899 26.2196 7.97899H23.2819C23.2095 7.97899 23.1408 7.99582 23.0793 8.02626C22.9438 8.09335 22.8432 8.22547 22.8188 8.38722L22.1938 12.4645L22.1758 12.5833C22.2169 12.3149 22.4395 12.1174 22.7037 12.1174H23.8034C25.9631 12.1174 27.6542 11.2139 28.1485 8.60038C28.1633 8.52303 28.1757 8.44774 28.1868 8.37408C28.0617 8.30571 27.9263 8.24726 27.7805 8.19746C27.7444 8.18512 27.7073 8.17325 27.6698 8.16172" fill="#22284F"/>
<path fill-rule="evenodd" clip-rule="evenodd" d="M22.8187 8.38722C22.8431 8.22547 22.9437 8.09335 23.0793 8.02672C23.1411 7.99616 23.2094 7.97933 23.2818 7.97933H26.2196C26.5676 7.97933 26.8925 8.00285 27.189 8.05219C27.2737 8.06614 27.356 8.08228 27.4363 8.10038C27.5163 8.11883 27.5942 8.13947 27.6697 8.16206C27.7072 8.17359 27.7444 8.18558 27.7807 8.19746C27.9266 8.24726 28.0621 8.30617 28.1871 8.37407C28.3342 7.40809 28.1859 6.75038 27.6789 6.1548C27.1198 5.49905 26.1109 5.21844 24.8198 5.21844H21.0716C20.8079 5.21844 20.5829 5.41593 20.5422 5.68478L18.981 15.8776C18.9503 16.0793 19.1013 16.2612 19.2987 16.2612H21.6127L22.8187 8.38722" fill="#28356A"/>
<path fill-rule="evenodd" clip-rule="evenodd" d="M10.8369 19.9927H8.10409C7.91706 19.9927 7.75802 20.1327 7.7288 20.3229L6.62353 27.5408C6.60159 27.6833 6.7087 27.8116 6.84895 27.8116H8.15357C8.3406 27.8116 8.49964 27.6717 8.52886 27.4812L8.82692 25.5343C8.85568 25.3437 9.01507 25.2038 9.20176 25.2038H10.0668C11.867 25.2038 12.9059 24.3065 13.1773 22.5286C13.2995 21.7506 13.1824 21.1395 12.8288 20.7114C12.4404 20.2414 11.7515 19.9927 10.8369 19.9927ZM11.152 22.629C11.0026 23.639 10.2534 23.639 9.52897 23.639H9.11651L9.40585 21.7527C9.42308 21.6387 9.51889 21.5547 9.63082 21.5547H9.81986C10.3133 21.5547 10.7789 21.5547 11.0194 21.8444C11.1629 22.0173 11.2067 22.2741 11.152 22.629V22.629Z" fill="#28356A"/>
<path fill-rule="evenodd" clip-rule="evenodd" d="M19.0755 22.5419H17.7668C17.6554 22.5419 17.559 22.6258 17.5419 22.7398L17.4839 23.1168L17.3924 22.9802C17.1092 22.5566 16.4773 22.4151 15.8468 22.4151C14.4006 22.4151 13.1655 23.5433 12.925 25.1258C12.8 25.9152 12.9777 26.6701 13.4125 27.1965C13.8113 27.6804 14.3819 27.8822 15.0608 27.8822C16.2261 27.8822 16.8721 27.1105 16.8721 27.1105L16.8138 27.485C16.7918 27.6282 16.899 27.7567 17.0384 27.7567H18.2171C18.4046 27.7567 18.5629 27.6167 18.5924 27.4261L19.2997 22.8127C19.3221 22.6707 19.2153 22.5419 19.0755 22.5419ZM17.2513 25.1654C17.125 25.9354 16.5317 26.4523 15.7749 26.4523C15.3949 26.4523 15.0912 26.3267 14.8961 26.0889C14.7027 25.8527 14.6293 25.5164 14.6907 25.1418C14.8087 24.3784 15.412 23.8445 16.1573 23.8445C16.5289 23.8445 16.831 23.9718 17.03 24.2116C17.2294 24.454 17.3085 24.7924 17.2513 25.1654V25.1654Z" fill="#28356A"/>
<path fill-rule="evenodd" clip-rule="evenodd" d="M25.9445 22.6573H24.6294C24.5039 22.6573 24.3861 22.7215 24.315 22.829L22.5012 25.5808L21.7324 22.9363C21.684 22.7709 21.5358 22.6573 21.368 22.6573H20.0758C19.9186 22.6573 19.8096 22.8154 19.8595 22.9677L21.3081 27.346L19.9463 29.3262C19.8391 29.4822 19.947 29.6966 20.1321 29.6966H21.4455C21.5702 29.6966 21.6868 29.634 21.7576 29.5288L26.1315 23.0257C26.2362 22.8701 26.1287 22.6573 25.9445 22.6573" fill="#28356A"/>
<path fill-rule="evenodd" clip-rule="evenodd" d="M30.3286 19.9927H27.5954C27.4088 19.9927 27.2498 20.1327 27.2206 20.3229L26.1153 27.5408C26.0933 27.6833 26.2005 27.8116 26.3399 27.8116H27.7425C27.8727 27.8116 27.9841 27.7137 28.0045 27.5803L28.3182 25.5343C28.347 25.3437 28.5065 25.2038 28.6931 25.2038H29.5578C31.3583 25.2038 32.3968 24.3065 32.6686 22.5286C32.7913 21.7506 32.6734 21.1395 32.3197 20.7114C31.9317 20.2414 31.2432 19.9927 30.3286 19.9927ZM30.6439 22.629C30.4948 23.639 29.7456 23.639 29.0207 23.639H28.6088L28.8985 21.7527C28.9156 21.6387 29.0108 21.5547 29.123 21.5547H29.3121C29.8051 21.5547 30.2711 21.5547 30.5116 21.8444C30.6551 22.0173 30.6986 22.2741 30.6439 22.629V22.629Z" fill="#298FC2"/>
<path fill-rule="evenodd" clip-rule="evenodd" d="M38.5654 22.5419H37.2576C37.1453 22.5419 37.0498 22.6258 37.033 22.7398L36.9751 23.1168L36.8832 22.9802C36.5999 22.5566 35.9685 22.4151 35.3379 22.4151C33.8918 22.4151 32.6571 23.5433 32.4166 25.1258C32.2919 25.9152 32.4689 26.6701 32.9036 27.1965C33.3033 27.6804 33.873 27.8822 34.552 27.8822C35.7171 27.8822 36.3633 27.1105 36.3633 27.1105L36.305 27.485C36.283 27.6282 36.39 27.7567 36.5304 27.7567H37.7087C37.8953 27.7567 38.0544 27.6167 38.0836 27.4261L38.7912 22.8127C38.8128 22.6707 38.7057 22.5419 38.5654 22.5419ZM36.7413 25.1654C36.6158 25.9354 36.0216 26.4523 35.2647 26.4523C34.8855 26.4523 34.5811 26.3267 34.386 26.0889C34.1927 25.8527 34.12 25.5164 34.1806 25.1418C34.2994 24.3784 34.9019 23.8445 35.6472 23.8445C36.0188 23.8445 36.3209 23.9718 36.5199 24.2116C36.72 24.454 36.7991 24.7924 36.7413 25.1654V25.1654Z" fill="#298FC2"/>
<path fill-rule="evenodd" clip-rule="evenodd" d="M39.9992 20.1911L38.8776 27.5411C38.8557 27.6836 38.9627 27.8119 39.1021 27.8119H40.2298C40.4173 27.8119 40.5762 27.6721 40.605 27.4815L41.7111 20.264C41.7331 20.1215 41.626 19.9927 41.4865 19.9927H40.2239C40.1124 19.9931 40.0165 20.0771 39.9992 20.1911" fill="#298FC2"/>
</svg>
