<svg width="48" height="24" viewBox="0 0 48 24" fill="none" xmlns="http://www.w3.org/2000/svg">
<path d="M18.9954 19.8893V8.70159C18.9954 6.63953 19.9268 4.97234 21.0787 4.97234H22.923C24.0688 4.97234 24.994 6.63953 24.994 8.69062V11.0708C24.994 13.1328 24.0626 14.8 22.9107 14.8L20.4951 14.917" stroke="#939598" stroke-miterlimit="10" stroke-linecap="round" stroke-linejoin="round"/>
<path d="M27.9933 5.9668H28.9637C29.534 5.9668 29.9933 6.78798 29.9933 7.80783V14.917" stroke="#939598" stroke-miterlimit="10" stroke-linecap="round" stroke-linejoin="round"/>
<path d="M28.8926 4.46271L28.1373 3.33993C27.9453 3.05448 27.9453 2.59775 28.1373 2.33133L28.8926 1.20855C29.0846 0.923098 29.3918 0.923098 29.571 1.20855L30.3263 2.33133C30.5183 2.61678 30.5183 3.07351 30.3263 3.33993L29.571 4.46271C29.379 4.72913 29.0718 4.72913 28.8926 4.46271Z" fill="#32BCAD"/>
<path d="M32.9921 5.9668H33.8602C34.3111 5.9668 34.7351 6.22138 35.0581 6.69138L37.0973 9.65826C37.3598 10.0401 37.7905 10.0401 38.0529 9.65826L40.0854 6.70117C40.4017 6.24096 40.8324 5.97659 41.2833 5.97659H41.9899" stroke="#939598" stroke-miterlimit="10" stroke-linecap="round" stroke-linejoin="round"/>
<path d="M32.9921 14.917H33.8602C34.3111 14.917 34.7351 14.6624 35.0581 14.1924L37.0973 11.2255C37.3598 10.8437 37.7905 10.8437 38.0529 11.2255L40.0854 14.1826C40.4017 14.6428 40.8324 14.9072 41.2833 14.9072H41.9899" stroke="#939598" stroke-miterlimit="10" stroke-linecap="round" stroke-linejoin="round"/>
<path d="M12.6727 18.4967C12.0143 18.4967 11.3964 18.152 10.9305 17.5178L8.41843 14.0983C8.24624 13.8639 7.93223 13.8639 7.76003 14.0983L5.23784 17.5316C4.7719 18.1658 4.15401 18.5105 3.4956 18.5105H2.99927L6.18999 22.8538C7.18266 24.205 8.80335 24.205 9.79602 22.8538L12.9969 18.4967H12.6727Z" fill="#32BCAD"/>
<path d="M3.50573 5.35111C4.16414 5.35111 4.78202 5.69546 5.24797 6.32905L7.77016 9.75872C7.95249 10.0067 8.24624 10.0067 8.42857 9.75872L10.9508 6.34282C11.4167 5.70923 12.0346 5.36489 12.693 5.36489H12.9969L9.79602 1.01237C8.80335 -0.337458 7.18266 -0.337458 6.18999 1.01237L2.99927 5.35111H3.50573Z" fill="#32BCAD"/>
<path d="M15.2862 9.545L13.4412 6.97473C13.4026 7.00164 13.3543 7.0151 13.306 7.0151H12.4656C12.0309 7.0151 11.6059 7.25732 11.3065 7.68795L8.91091 11.0253C8.68874 11.3348 8.38929 11.4963 8.09951 11.4963C7.80006 11.4963 7.51027 11.3348 7.28811 11.0253L4.88289 7.67449C4.57378 7.24387 4.14876 7.00164 3.72375 7.00164H2.69018C2.64188 7.00164 2.60324 6.98819 2.5646 6.96127L0.709975 9.545C-0.236658 10.8638 -0.236658 13.0169 0.709975 14.3357L2.55494 16.9059C2.59358 16.879 2.63222 16.8656 2.68052 16.8656H3.71408C4.14876 16.8656 4.57378 16.6233 4.87323 16.1927L7.27845 12.8419C7.71313 12.2364 8.47623 12.2364 8.91091 12.8419L11.3065 16.1793C11.6156 16.6099 12.0406 16.8521 12.4656 16.8521H13.306C13.3543 16.8521 13.3929 16.8656 13.4412 16.8925L15.2862 14.3222C16.2328 13.0034 16.2328 10.8638 15.2862 9.545Z" fill="#32BCAD"/>
<path d="M13.7266 21.7592C13.5473 21.7592 13.3425 21.8163 13.1249 21.8924V23.0723C13.2657 23.1484 13.4321 23.1865 13.5858 23.1865C13.9826 23.1865 14.1746 22.9771 14.1746 22.4633C14.1874 21.9876 14.0338 21.7592 13.7266 21.7592ZM12.9969 23.9667V21.626H13.1121L13.1249 21.7211C13.3041 21.664 13.5601 21.5689 13.7522 21.5689C13.9058 21.5689 14.0466 21.607 14.1618 21.7402C14.3026 21.9114 14.341 22.1779 14.341 22.4633C14.341 22.7678 14.277 23.0532 14.085 23.2245C13.957 23.3387 13.7778 23.3768 13.6242 23.3768C13.4577 23.3768 13.3041 23.3387 13.1505 23.2626V23.9477H12.9969V23.9667Z" fill="#939598"/>
<path d="M15.3391 21.7592C14.9423 21.7592 14.7631 21.9495 14.7631 22.4633C14.7631 22.9771 14.9423 23.1865 15.3391 23.1865C15.736 23.1865 15.9152 22.9962 15.9152 22.4823C15.9024 21.9876 15.736 21.7592 15.3391 21.7592ZM15.8512 23.2055C15.7232 23.3387 15.544 23.3958 15.3391 23.3958C15.1343 23.3958 14.9551 23.3577 14.8271 23.2055C14.6863 23.0532 14.6223 22.8059 14.6223 22.4823C14.6223 22.1779 14.6863 21.9114 14.8271 21.7592C14.9551 21.626 15.1343 21.5689 15.3391 21.5689C15.544 21.5689 15.7232 21.607 15.8512 21.7592C16.0048 21.9114 16.056 22.1779 16.056 22.4823C16.056 22.7868 15.992 23.0532 15.8512 23.2055Z" fill="#939598"/>
<path d="M17.7325 23.3387L17.2845 21.9114H17.2717L16.8364 23.3387H16.7212L16.2476 21.626H16.4012L16.798 23.0532H16.8108L17.2333 21.626H17.3613L17.7965 23.0532H17.8093L18.1934 21.626H18.3342L17.8605 23.3387H17.7325Z" fill="#939598"/>
<path d="M19.1913 21.7592C18.8201 21.7592 18.6921 22.0066 18.6793 22.3491H19.7162C19.6906 21.9685 19.5625 21.7592 19.1913 21.7592ZM19.1785 23.3768C18.9609 23.3768 18.8201 23.3387 18.7049 23.1865C18.564 23.0152 18.5256 22.7678 18.5256 22.4823C18.5256 22.2159 18.5896 21.9114 18.7433 21.7592C18.8713 21.626 19.0249 21.5879 19.1913 21.5879C19.3449 21.5879 19.5113 21.607 19.6521 21.7592C19.8186 21.9305 19.857 22.2159 19.857 22.5394H18.6793C18.6793 22.901 18.7561 23.2055 19.2041 23.2055C19.4217 23.2055 19.6137 23.1484 19.793 23.1103V23.2816C19.6009 23.3197 19.3833 23.3768 19.1785 23.3768Z" fill="#939598"/>
<path d="M20.2279 23.3387V21.626H20.3431L20.3559 21.7211C20.5991 21.626 20.7144 21.5689 20.932 21.5689H20.9448V21.7592H20.9064C20.7272 21.7592 20.6119 21.7973 20.3687 21.8924V23.3197L20.2279 23.3387Z" fill="#939598"/>
<path d="M21.7254 21.7592C21.3541 21.7592 21.2261 22.0066 21.2133 22.3491H22.2502C22.2246 21.9685 22.0966 21.7592 21.7254 21.7592ZM21.7126 23.3768C21.4949 23.3768 21.3541 23.3387 21.2389 23.1865C21.0981 23.0152 21.0597 22.7678 21.0597 22.4823C21.0597 22.2159 21.1237 21.9114 21.2773 21.7592C21.4053 21.626 21.5589 21.5879 21.7254 21.5879C21.879 21.5879 22.0454 21.607 22.1862 21.7592C22.3526 21.9305 22.391 22.2159 22.391 22.5394H21.2133C21.2133 22.901 21.2901 23.2055 21.7382 23.2055C21.9558 23.2055 22.1478 23.1484 22.327 23.1103V23.2816C22.135 23.3197 21.9174 23.3768 21.7126 23.3768Z" fill="#939598"/>
<path d="M23.85 21.8734C23.7092 21.7972 23.5428 21.7592 23.3891 21.7592C22.9923 21.7592 22.8003 21.9685 22.8003 22.4823C22.8003 22.9771 22.9539 23.1864 23.2611 23.1864C23.4403 23.1864 23.6452 23.1294 23.8628 23.0532V21.8734H23.85ZM23.8756 23.3387L23.8628 23.2435C23.6836 23.3006 23.4275 23.3958 23.2355 23.3958C23.0819 23.3958 22.9411 23.3577 22.8259 23.2245C22.6851 23.0532 22.6467 22.7868 22.6467 22.5014C22.6467 22.1969 22.7107 21.9114 22.9027 21.7592C23.0307 21.645 23.2099 21.6069 23.3635 21.6069C23.5172 21.6069 23.6836 21.645 23.8372 21.7211V20.9409H23.978V23.3768L23.8756 23.3387Z" fill="#939598"/>
<path d="M25.9616 21.7592C25.7824 21.7592 25.5776 21.8163 25.3599 21.8924V23.0723C25.5008 23.1484 25.6672 23.1865 25.8208 23.1865C26.2176 23.1865 26.4097 22.9771 26.4097 22.4633C26.4097 21.9876 26.256 21.7592 25.9616 21.7592ZM26.3072 23.2245C26.1792 23.3387 26 23.3768 25.8464 23.3768C25.68 23.3768 25.5008 23.3387 25.3343 23.2435L25.3215 23.3197H25.2319V20.8838H25.3727V21.7021C25.552 21.645 25.808 21.5689 25.9872 21.5689C26.1408 21.5689 26.2816 21.607 26.3968 21.7402C26.5377 21.9114 26.5761 22.1779 26.5761 22.4633C26.5633 22.7868 26.4865 23.0723 26.3072 23.2245Z" fill="#939598"/>
<path d="M26.7293 23.9857V23.7954C26.7933 23.8145 26.8573 23.8144 26.8957 23.8144C27.0622 23.8144 27.1646 23.7383 27.2542 23.4529L27.2926 23.3197L26.6909 21.6069H26.8445L27.3566 23.0913H27.3694L27.8558 21.6069H28.0095L27.3566 23.529C27.2414 23.8715 27.1134 23.9857 26.8701 23.9857C26.8445 24.0048 26.7933 24.0048 26.7293 23.9857Z" fill="#939598"/>
<path d="M29.878 22.3491H29.4299V22.9581H29.878C30.1852 22.9581 30.3004 22.901 30.3004 22.6536C30.3132 22.3872 30.1468 22.3491 29.878 22.3491ZM29.8012 21.3786H29.4427V21.9875H29.814C30.1212 21.9875 30.2364 21.9304 30.2364 21.6831C30.2236 21.4166 30.07 21.3786 29.8012 21.3786ZM30.4924 23.1674C30.326 23.3197 30.134 23.3387 29.7628 23.3387H29.0843V21.017H29.75C30.0572 21.017 30.2492 21.017 30.4156 21.1692C30.5308 21.2644 30.5692 21.4357 30.5692 21.626C30.5692 21.8734 30.5052 22.0256 30.326 22.1398V22.1588C30.5308 22.2349 30.6588 22.3872 30.6588 22.7107C30.6588 22.92 30.6076 23.0723 30.4924 23.1674Z" fill="#939598"/>
<path d="M32.028 22.6156C31.8872 22.5965 31.7592 22.5965 31.6184 22.5965C31.388 22.5965 31.2984 22.6726 31.2984 22.8249C31.2984 22.9771 31.3624 23.0532 31.5416 23.0532C31.6952 23.0532 31.8744 22.9962 32.028 22.9581V22.6156ZM32.092 23.3387L32.0792 23.2435C31.8872 23.3197 31.6568 23.3958 31.452 23.3958C31.324 23.3958 31.196 23.3768 31.1063 23.2626C31.0167 23.1674 30.9783 23.0152 30.9783 22.8439C30.9783 22.6536 31.0295 22.4633 31.1704 22.3872C31.2856 22.3111 31.452 22.292 31.6056 22.292C31.7208 22.292 31.8872 22.3111 32.028 22.3111V22.273C32.028 22.0066 31.9128 21.9114 31.58 21.9114C31.452 21.9114 31.2984 21.9305 31.1576 21.9495V21.607C31.324 21.5879 31.5032 21.5689 31.6568 21.5689C31.8616 21.5689 32.0664 21.5879 32.1945 21.7211C32.3225 21.8543 32.3481 22.0446 32.3481 22.3111V23.3197L32.092 23.3387Z" fill="#939598"/>
<path d="M33.8454 23.3387V22.3872C33.8454 22.0827 33.743 21.9685 33.5509 21.9685C33.4101 21.9685 33.2309 22.0256 33.0773 22.0827V23.3387H32.7573V21.626H33.0133L33.0261 21.7402C33.2309 21.664 33.4485 21.5879 33.6406 21.5879C33.7814 21.5879 33.9222 21.626 34.0374 21.7592C34.127 21.8734 34.1654 22.0446 34.1654 22.292V23.3387H33.8454Z" fill="#939598"/>
<path d="M35.0739 23.3768C34.9203 23.3768 34.7667 23.3387 34.6515 23.2055C34.5107 23.0342 34.4723 22.7678 34.4723 22.4823C34.4723 22.2159 34.5363 21.9114 34.7027 21.7592C34.8435 21.626 35.0227 21.5879 35.2148 21.5879C35.3428 21.5879 35.4708 21.607 35.6244 21.626V21.9876C35.5092 21.9685 35.3684 21.9495 35.2532 21.9495C34.9459 21.9495 34.8051 22.0827 34.8051 22.4823C34.8051 22.8439 34.9075 23.0152 35.1636 23.0152C35.3044 23.0152 35.4836 22.9771 35.65 22.92V23.2816C35.458 23.3197 35.2532 23.3768 35.0739 23.3768Z" fill="#939598"/>
<path d="M36.5842 21.9305C36.2769 21.9305 36.1489 22.0637 36.1489 22.4633C36.1489 22.8439 36.2769 23.0152 36.5842 23.0152C36.8914 23.0152 37.0194 22.882 37.0194 22.4823C37.0194 22.1017 36.8914 21.9305 36.5842 21.9305ZM37.1346 23.2055C36.9938 23.3387 36.8146 23.3768 36.5842 23.3768C36.3538 23.3768 36.1745 23.3387 36.0337 23.2055C35.8801 23.0532 35.8161 22.7868 35.8161 22.4823C35.8161 22.1779 35.8673 21.9114 36.0337 21.7592C36.1745 21.626 36.3538 21.5879 36.5842 21.5879C36.8146 21.5879 36.9938 21.626 37.1346 21.7592C37.2882 21.9114 37.3523 22.1779 37.3523 22.4823C37.3523 22.7868 37.2882 23.0532 37.1346 23.2055Z" fill="#939598"/>
<path d="M39.2079 23.3768C39.0158 23.3768 38.7982 23.3387 38.6446 23.1294C38.4526 22.901 38.4014 22.5394 38.4014 22.1588C38.4014 21.8163 38.4782 21.4166 38.7214 21.1692C38.9134 20.9789 39.1438 20.9409 39.3871 20.9409C39.5663 20.9409 39.7327 20.9599 39.9375 20.9789V21.3976C39.7711 21.3786 39.5663 21.3596 39.4127 21.3596C38.9646 21.3596 38.7854 21.6069 38.7854 22.1398C38.7854 22.6917 38.9646 22.9391 39.2847 22.9391C39.5023 22.9391 39.7327 22.882 39.9759 22.8058V23.2245C39.7199 23.3006 39.4639 23.3768 39.2079 23.3768Z" fill="#939598"/>
<path d="M40.8972 21.8734C40.6284 21.8734 40.526 22.0066 40.5132 22.273H41.2941C41.2813 22.0066 41.1661 21.8734 40.8972 21.8734ZM40.846 23.3768C40.654 23.3768 40.4876 23.3387 40.3596 23.1865C40.2188 23.0152 40.1804 22.7678 40.1804 22.4633C40.1804 22.1969 40.2316 21.9114 40.398 21.7402C40.5388 21.5879 40.718 21.5689 40.8972 21.5689C41.0636 21.5689 41.2557 21.5879 41.3965 21.7402C41.5757 21.9305 41.6013 22.2349 41.6013 22.5775H40.5132C40.526 22.8439 40.6156 23.0152 40.9356 23.0152C41.1405 23.0152 41.3581 22.9771 41.5501 22.92V23.2626C41.3197 23.3197 41.0765 23.3768 40.846 23.3768Z" fill="#939598"/>
<path d="M43.0345 23.3387V22.3872C43.0345 22.0827 42.9321 21.9685 42.7401 21.9685C42.5993 21.9685 42.4201 22.0256 42.2664 22.0827V23.3387H41.9464V21.626H42.2024L42.2152 21.7402C42.4201 21.664 42.6377 21.5879 42.8297 21.5879C42.9705 21.5879 43.1113 21.626 43.2265 21.7592C43.3161 21.8734 43.3546 22.0446 43.3546 22.292V23.3387H43.0345Z" fill="#939598"/>
<path d="M44.2632 23.3768C44.1096 23.3768 43.9687 23.3197 43.8919 23.1294C43.8407 23.0152 43.8023 22.8439 43.8023 22.6156V21.9685H43.5719V21.607H43.8023L43.8407 21.0931H44.1224V21.607H44.5704V21.9685H44.1224V22.5204C44.1224 22.6536 44.1352 22.7678 44.148 22.8439C44.1864 22.9581 44.2632 22.9962 44.3528 22.9962C44.4296 22.9962 44.5192 22.9771 44.5832 22.9581V23.3006C44.4936 23.3577 44.3656 23.3768 44.2632 23.3768Z" fill="#939598"/>
<path d="M44.8901 23.3387V21.626H45.1462L45.159 21.7402C45.3766 21.645 45.5302 21.5879 45.735 21.5879H45.7734V21.9876H45.6582C45.5046 21.9876 45.3766 22.0066 45.2102 22.0827V23.3387H44.8901Z" fill="#939598"/>
<path d="M46.9381 22.6156C46.7973 22.5965 46.6693 22.5965 46.5284 22.5965C46.298 22.5965 46.2084 22.6726 46.2084 22.8249C46.2084 22.9771 46.2724 23.0532 46.4516 23.0532C46.6053 23.0532 46.7845 22.9962 46.9381 22.9581V22.6156ZM47.0149 23.3387L47.0021 23.2435C46.8101 23.3197 46.5797 23.3958 46.3748 23.3958C46.2468 23.3958 46.1188 23.3768 46.0292 23.2626C45.9396 23.1674 45.9012 23.0152 45.9012 22.8439C45.9012 22.6536 45.9524 22.4633 46.0932 22.3872C46.2084 22.3111 46.3748 22.292 46.5284 22.292C46.6437 22.292 46.8101 22.3111 46.9509 22.3111V22.273C46.9509 22.0066 46.8357 21.9114 46.5028 21.9114C46.3748 21.9114 46.2212 21.9305 46.0804 21.9495V21.607C46.2468 21.5879 46.426 21.5689 46.5797 21.5689C46.7845 21.5689 46.9893 21.5879 47.1173 21.7211C47.2453 21.8543 47.2709 22.0446 47.2709 22.3111V23.3197L47.0149 23.3387Z" fill="#939598"/>
<path d="M47.6801 20.9028H48.0001V23.3387H47.6801V20.9028Z" fill="#939598"/>
</svg>
