<svg width="48" height="34" viewBox="0 0 48 34" fill="none"
    xmlns="http://www.w3.org/2000/svg">
    <path d="M21.3118 23.3182H18.1161L20.1149 11.4176H23.3105L21.3118 23.3182Z" fill="#15195A"/>
    <path d="M32.8963 11.7086C32.266 11.4678 31.2662 11.2019 30.03 11.2019C26.8742 11.2019 24.6518 12.8224 24.6382 15.1391C24.612 16.8483 26.2293 17.7977 27.439 18.3676C28.6753 18.95 29.0956 19.3301 29.0956 19.8492C29.083 20.6465 28.0965 21.014 27.1765 21.014C25.9006 21.014 25.217 20.8245 24.1781 20.381L23.7573 20.1908L23.3101 22.8623C24.0596 23.191 25.4405 23.4828 26.8742 23.4956C30.2273 23.4956 32.4103 21.9003 32.4362 19.4314C32.449 18.0767 31.5949 17.0387 29.7537 16.1904C28.636 15.6459 27.9515 15.2787 27.9515 14.7216C27.9646 14.2151 28.5305 13.6963 29.7922 13.6963C30.8311 13.6709 31.5944 13.9114 32.1727 14.152L32.4617 14.2784L32.8963 11.7086V11.7086V11.7086Z" fill="#15195A"/>
    <path fill-rule="evenodd" clip-rule="evenodd" d="M38.6168 11.4176H41.0886L43.6668 23.3181H40.7079C40.7079 23.3181 40.4183 21.9507 40.3265 21.5329H36.2235C36.1049 21.8493 35.5528 23.3181 35.5528 23.3181H32.1996L36.9465 12.405C37.2754 11.6327 37.8545 11.4176 38.6168 11.4176ZM38.4199 15.7726C38.4199 15.7726 37.4072 18.4186 37.144 19.1023H39.8003C39.6688 18.5073 39.0637 15.6587 39.0637 15.6587L38.8403 14.6333C38.7463 14.8973 38.6103 15.2603 38.5185 15.5052C38.4564 15.6712 38.4145 15.7829 38.4199 15.7726Z" fill="#15195A"/>
    <path fill-rule="evenodd" clip-rule="evenodd" d="M4.26952 11.4176H9.41111C10.108 11.4427 10.6735 11.6579 10.8575 12.418L11.9748 17.8853C11.975 17.8858 11.9752 17.8864 11.9753 17.8869L12.3173 19.5327L15.447 11.4176H18.8262L13.8031 23.3056H10.4237L7.57536 12.9651C6.59259 12.4118 5.47096 11.9669 4.21692 11.6581L4.26952 11.4176Z" fill="#15195A"/>
</svg>
